<svg width="96" height="96" viewBox="0 0 96 96" fill="none" xmlns="http://www.w3.org/2000/svg">
<path d="M48.0002 60.8002C55.0694 60.8002 60.8002 55.0694 60.8002 48.0002C60.8002 40.9309 55.0694 35.2002 48.0002 35.2002C40.9309 35.2002 35.2002 40.9309 35.2002 48.0002C35.2002 55.0694 40.9309 60.8002 48.0002 60.8002Z" fill="currentColor"/>
<path d="M36 8L28.68 16H16C11.6 16 8 19.6 8 24V72C8 76.4 11.6 80 16 80H80C84.4 80 88 76.4 88 72V24C88 19.6 84.4 16 80 16H67.32L60 8H36ZM48 68C36.96 68 28 59.04 28 48C28 36.96 36.96 28 48 28C59.04 28 68 36.96 68 48C68 59.04 59.04 68 48 68Z" fill="currentColor"/>
</svg>
