<svg width="18" height="18" viewBox="0 0 18 18" fill="none" xmlns="http://www.w3.org/2000/svg">
<g clip-path="url(#clip0_195_894)">
<path d="M3.63372 5.17617H2.20351V15.1512C2.20351 15.9349 2.8471 16.5762 3.63372 16.5762H13.6452V15.1512H3.63372V5.17617ZM15.0754 2.32617H6.49415C5.70753 2.32617 5.06394 2.96742 5.06394 3.75117V12.3012C5.06394 13.0849 5.70753 13.7262 6.49415 13.7262H15.0754C15.8621 13.7262 16.5057 13.0849 16.5057 12.3012V3.75117C16.5057 2.96742 15.8621 2.32617 15.0754 2.32617ZM14.3603 8.73867H11.4999V11.5887H10.0697V8.73867H7.20926V7.31367H10.0697V4.46367H11.4999V7.31367H14.3603V8.73867Z" fill="black"/>
</g>
<defs>
<clipPath id="clip0_195_894">
<rect width="17.1626" height="17.1" fill="white" transform="translate(0.773346 0.902344)"/>
</clipPath>
</defs>
</svg>
