<svg width="99" height="82" viewBox="0 0 99 82" fill="none" xmlns="http://www.w3.org/2000/svg">
<path d="M88.247 41.1698V20.5886C88.247 17.8876 90.4366 15.6981 93.1376 15.6981C95.8385 15.6981 98.0281 17.8876 98.0281 20.5886V36.483C98.0281 41.8849 93.6489 46.2641 88.247 46.2641M88.247 66.6415H92.9338C95.7473 66.6415 98.0281 64.3606 98.0281 61.5471C98.0281 58.7336 95.7473 56.4528 92.9338 56.4528H88.247M39.3413 46.2641C52.3991 46.2641 78.4659 53.0905 78.4659 66.6415V71.9245C78.4659 77.4473 73.9887 81.9245 68.4659 81.9245H10.2168C4.69395 81.9245 0.216797 77.4473 0.216797 71.9245V66.6415C0.216797 53.0905 26.2835 46.2641 39.3413 46.2641ZM39.3413 0.415039C44.5296 0.415039 49.5053 2.56193 53.1739 6.38343C56.8426 10.2049 58.9036 15.388 58.9036 20.7924C58.9036 26.1968 56.8426 31.3799 53.1739 35.2014C49.5053 39.0229 44.5296 41.1698 39.3413 41.1698C34.1531 41.1698 29.1773 39.0229 25.5087 35.2014C21.8401 31.3799 19.7791 26.1968 19.7791 20.7924C19.7791 15.388 21.8401 10.2049 25.5087 6.38343C29.1773 2.56193 34.1531 0.415039 39.3413 0.415039ZM39.3413 55.9433C24.8163 55.9433 9.50887 63.3811 9.50887 66.6415C9.50887 69.7363 12.0178 72.2452 15.1126 72.2452H63.57C66.6649 72.2452 69.1738 69.7363 69.1738 66.6415C69.1738 63.3811 53.8663 55.9433 39.3413 55.9433ZM39.3413 10.0943C36.6175 10.0943 34.0052 11.2214 32.0792 13.2277C30.1532 15.234 29.0711 17.9551 29.0711 20.7924C29.0711 23.6297 30.1532 26.3508 32.0792 28.3571C34.0052 30.3634 36.6175 31.4905 39.3413 31.4905C42.0651 31.4905 44.6774 30.3634 46.6034 28.3571C48.5295 26.3508 49.6115 23.6297 49.6115 20.7924C49.6115 17.9551 48.5295 15.234 46.6034 13.2277C44.6774 11.2214 42.0651 10.0943 39.3413 10.0943Z" fill="black"/>
</svg>
