<svg width="95" height="72" viewBox="0 0 95 72" fill="none" xmlns="http://www.w3.org/2000/svg">
<path d="M17.9378 10.1924C17.9378 4.66953 22.4149 0.192383 27.9378 0.192383H84.8872C90.4101 0.192383 94.8872 4.66954 94.8872 10.1924V43.8005C94.8872 49.3234 90.4101 53.8005 84.8872 53.8005H27.9378C22.4149 53.8005 17.9378 49.3234 17.9378 43.8005V10.1924ZM56.4125 13.5944C59.8139 13.5944 63.076 15.0064 65.4811 17.5198C67.8862 20.0331 69.2374 23.442 69.2374 26.9964C69.2374 30.5509 67.8862 33.9598 65.4811 36.4731C63.076 38.9865 59.8139 40.3985 56.4125 40.3985C53.0111 40.3985 49.7491 38.9865 47.3439 36.4731C44.9388 33.9598 43.5876 30.5509 43.5876 26.9964C43.5876 23.442 44.9388 20.0331 47.3439 17.5198C49.7491 15.0064 53.0111 13.5944 56.4125 13.5944ZM42.0007 9.12707C38.1551 9.12707 35.1922 12.6664 32.5334 15.4448C29.9481 18.1465 26.4877 21.0931 26.4877 24.8324V29.1605C26.4877 32.8998 29.9481 35.8464 32.5334 38.548C35.1922 41.3265 38.1551 44.8658 42.0007 44.8658H70.8243C74.6699 44.8658 77.6328 41.3265 80.2916 38.548C82.8769 35.8464 86.3373 32.8998 86.3373 29.1605V24.8324C86.3373 21.0931 82.8769 18.1465 80.2916 15.4448C77.6328 12.6664 74.6699 9.12707 70.8243 9.12707H42.0007ZM0.837891 22.3367C0.837891 19.9757 2.75186 18.0618 5.11286 18.0618C7.47386 18.0618 9.38783 19.9757 9.38783 22.3367V52.7352C9.38783 58.2581 13.865 62.7352 19.3878 62.7352H73.32C75.7873 62.7352 77.7874 64.7353 77.7874 67.2025C77.7874 69.6698 75.7873 71.6699 73.32 71.6699H10.8379C5.31504 71.6699 0.837891 67.1927 0.837891 61.6699V22.3367Z" fill="white"/>
</svg>
