<svg width="81" height="89" viewBox="0 0 81 89" fill="none" xmlns="http://www.w3.org/2000/svg">
<path d="M40.7141 34.0731H42.5136C45.999 34.0731 48.8245 31.2476 48.8245 27.7622V27.5341C48.8245 24.1747 51.5478 21.4513 54.9073 21.4513H56.7828C59.1064 21.4513 60.99 19.5676 60.99 17.244V17.244C60.99 14.9204 59.1064 13.0368 56.7828 13.0368H54.9073C51.5478 13.0368 48.8245 10.3134 48.8245 6.954V4.47023C48.8245 2.23061 47.0089 0.415039 44.7693 0.415039V0.415039C42.5296 0.415039 40.7141 2.23061 40.7141 4.47024V6.954C40.7141 10.3134 37.9907 13.0368 34.6313 13.0368H32.7557C30.4321 13.0368 28.5485 14.9204 28.5485 17.244V17.244C28.5485 19.5676 30.4321 21.4513 32.7557 21.4513H40.7141M24.4933 71.9383C20.0326 71.9383 16.3829 75.7248 16.3829 80.3528C16.3829 84.9808 20.0326 88.7673 24.4933 88.7673C28.954 88.7673 32.6037 84.9808 32.6037 80.3528C32.6037 75.7248 28.954 71.9383 24.4933 71.9383ZM65.0452 71.9383C60.5845 71.9383 56.9349 75.7248 56.9349 80.3528C56.9349 84.9808 60.5845 88.7673 65.0452 88.7673C69.506 88.7673 73.1556 84.9808 73.1556 80.3528C73.1556 75.7248 69.506 71.9383 65.0452 71.9383ZM25.3043 58.4751V58.4751C25.3043 58.1986 25.3699 57.926 25.4956 57.6796L26.3331 56.0382C27.9416 52.8861 31.1815 50.9021 34.7202 50.9021H58.9624C61.8011 50.9021 64.6397 49.2192 65.8563 46.6948L79.8664 20.6056C80.879 18.7198 80.2417 16.3714 78.4146 15.2564V15.2564C76.4393 14.0508 73.8568 14.7517 72.762 16.7905L61.7919 37.2186C60.0495 40.4632 56.6647 42.4876 52.9818 42.4876H37.0431C33.1074 42.4876 29.5377 40.179 27.9232 36.5897L15.7001 9.41527C14.3881 6.49836 11.4871 4.62229 8.28874 4.62229H4.36936C2.04576 4.62229 0.162109 6.50594 0.162109 8.82954V8.82954C0.162109 11.1531 2.04576 13.0368 4.36936 13.0368H5.09925C7.03233 13.0368 8.78758 14.1649 9.59043 15.9234L20.7602 40.3882C22.0868 43.2938 21.9455 46.6582 20.3801 49.4424L17.689 54.2289C17.3598 54.8143 17.0826 55.4291 16.8929 56.0734C16.6093 57.0366 16.3829 58.0591 16.3829 59.3166C16.3829 63.9445 20.0326 67.7311 24.4933 67.7311H68.9484C71.272 67.7311 73.1556 65.8474 73.1556 63.5238V63.5238C73.1556 61.2002 71.272 59.3166 68.9484 59.3166H26.1154C25.7098 59.3166 25.3043 58.8958 25.3043 58.4751Z" fill="black"/>
</svg>
