<svg width="91" height="94" viewBox="0 0 91 94" fill="none" xmlns="http://www.w3.org/2000/svg">
<path d="M42.1198 63.575C37.5723 66.3903 31.886 62.3194 33.0854 57.1072L33.1768 56.7102C33.6855 54.4993 32.9164 52.163 31.2166 50.6605C27.1697 47.0836 29.2983 40.3012 34.6746 39.7836C36.8909 39.5703 38.8267 38.1531 39.685 36.0986C41.7566 31.1397 48.8142 31.2198 50.8665 36.1867C51.7338 38.286 53.7073 39.7432 55.9704 39.9375C61.2987 40.395 63.4873 47.0123 59.4803 50.5541L59.3242 50.692C57.6294 52.1901 56.89 54.4953 57.3972 56.6997L57.491 57.1072C58.6904 62.3194 53.0041 66.3903 48.4566 63.575C46.5153 62.3732 44.0611 62.3732 42.1198 63.575ZM45.2882 0.415039C51.2166 0.415039 57.0869 1.61515 62.564 3.94685C68.0411 6.27855 73.0177 9.69618 77.2096 14.0046C81.4016 18.313 84.7269 23.4279 86.9956 29.0571C89.2642 34.6863 90.4319 40.7197 90.4319 46.8127C90.4319 59.1181 85.6757 70.9196 77.2096 79.6208C68.7435 88.3221 57.2611 93.2104 45.2882 93.2104C39.3599 93.2104 33.4896 92.0103 28.0125 89.6786C22.5354 87.3469 17.5588 83.9293 13.3668 79.6208C4.90073 70.9196 0.144531 59.1181 0.144531 46.8127C0.144531 34.5073 4.90073 22.7059 13.3668 14.0046C21.8329 5.30335 33.3154 0.415039 45.2882 0.415039ZM45.2882 9.69457C35.7099 9.69457 26.524 13.6052 19.7511 20.5662C12.9782 27.5272 9.17327 36.9684 9.17327 46.8127C9.17327 56.6571 12.9782 66.0982 19.7511 73.0592C26.524 80.0202 35.7099 83.9309 45.2882 83.9309C54.8665 83.9309 64.0525 80.0202 70.8253 73.0592C77.5982 66.0982 81.4032 56.6571 81.4032 46.8127C81.4032 36.9684 77.5982 27.5272 70.8253 20.5662C64.0525 13.6052 54.8665 9.69457 45.2882 9.69457Z" fill="black"/>
</svg>
