<svg width="13" height="12" viewBox="0 0 13 12" fill="none" xmlns="http://www.w3.org/2000/svg">
<path d="M11.8575 2.99031L10.6893 1.07711C10.5853 0.90625 10.3998 0.800781 10.202 0.800781H2.92803C2.73027 0.800781 2.54475 0.90625 2.44078 1.07711L1.27058 2.99031C0.667126 3.9775 1.20126 5.3507 2.32865 5.50891C2.4102 5.51945 2.49379 5.52578 2.57533 5.52578C3.10743 5.52578 3.5804 5.28531 3.90455 4.91406C4.2287 5.28531 4.70168 5.52578 5.23378 5.52578C5.76587 5.52578 6.23885 5.28531 6.563 4.91406C6.88715 5.28531 7.36012 5.52578 7.89222 5.52578C8.42635 5.52578 8.89729 5.28531 9.22144 4.91406C9.54763 5.28531 10.0186 5.52578 10.5507 5.52578C10.6342 5.52578 10.7158 5.51945 10.7973 5.50891C11.9288 5.35281 12.465 3.97961 11.8595 2.99031H11.8575ZM10.8809 6.17758H10.8789C10.7708 6.19234 10.6607 6.20078 10.5486 6.20078C10.2958 6.20078 10.0532 6.1607 9.82693 6.08898V8.90078H3.30314V6.08687C3.07481 6.1607 2.83017 6.20078 2.57737 6.20078C2.46524 6.20078 2.35312 6.19234 2.24507 6.17758H2.24303C2.15944 6.16492 2.07789 6.15016 1.99839 6.12906V8.90078V10.2508C1.99839 10.9954 2.58349 11.6008 3.30314 11.6008H9.82693C10.5466 11.6008 11.1317 10.9954 11.1317 10.2508V8.90078V6.12906C11.0501 6.15016 10.9686 6.16703 10.8809 6.17758Z" fill="currentColor"/>
</svg>
