<svg width="25" height="25" viewBox="0 0 25 25" fill="none" xmlns="http://www.w3.org/2000/svg">
<path d="M19.5391 7.91406L18.6721 20.0561C18.6361 20.5606 18.4104 21.0329 18.0402 21.3776C17.67 21.7224 17.1829 21.9141 16.6771 21.9141H8.40106C7.8952 21.9141 7.40813 21.7224 7.03795 21.3776C6.66777 21.0329 6.44198 20.5606 6.40606 20.0561L5.53906 7.91406M10.5391 11.9141V17.9141M14.5391 11.9141V17.9141M15.5391 7.91406V4.91406C15.5391 4.64885 15.4337 4.39449 15.2462 4.20696C15.0586 4.01942 14.8043 3.91406 14.5391 3.91406H10.5391C10.2738 3.91406 10.0195 4.01942 9.83196 4.20696C9.64442 4.39449 9.53906 4.64885 9.53906 4.91406V7.91406M4.53906 7.91406H20.5391" stroke="currentColor" stroke-width="2" stroke-linecap="round" stroke-linejoin="round"/>
</svg>
