<svg width="753" height="726" viewBox="0 0 753 726" fill="none" xmlns="http://www.w3.org/2000/svg">
<path d="M150.216 463.012C142.663 459.621 133.709 463.026 130.318 470.578C126.927 478.131 130.332 487.085 137.885 490.476C145.438 493.867 154.392 490.462 157.783 482.91C161.174 475.357 157.769 466.403 150.216 463.012ZM125.554 517.941C118.001 514.55 109.047 517.955 105.656 525.507C102.265 533.06 105.67 542.014 113.223 545.405C120.775 548.796 129.729 545.391 133.12 537.838C136.512 530.286 133.107 521.332 125.554 517.941ZM174.879 408.083C167.326 404.692 158.372 408.097 154.981 415.65C151.59 423.202 154.995 432.156 162.547 435.547C170.1 438.939 179.054 435.534 182.445 427.981C185.836 420.428 182.431 411.474 174.879 408.083ZM130.599 396.452C126.754 394.726 122.377 396.391 120.65 400.236C118.924 404.081 120.589 408.458 124.434 410.185C128.279 411.911 132.656 410.246 134.382 406.401C136.109 402.556 134.444 398.179 130.599 396.452ZM199.541 353.154C191.988 349.763 183.034 353.168 179.643 360.721C176.252 368.274 179.657 377.228 187.21 380.619C194.762 384.01 203.716 380.605 207.107 373.052C210.499 365.499 207.094 356.545 199.541 353.154ZM371.613 521.165C375.458 522.891 379.836 521.227 381.562 517.382C383.288 513.537 381.624 509.159 377.779 507.433C373.934 505.707 369.556 507.371 367.83 511.216C366.104 515.061 367.768 519.439 371.613 521.165ZM297.067 429.943C304.62 433.334 313.574 429.929 316.965 422.377C320.356 414.824 316.951 405.87 309.399 402.479C301.846 399.088 292.892 402.493 289.501 410.045C286.11 417.598 289.515 426.552 297.067 429.943ZM318.647 381.881C322.492 383.607 326.869 381.942 328.596 378.097C330.322 374.252 328.657 369.875 324.812 368.148C320.967 366.422 316.59 368.087 314.864 371.932C313.137 375.777 314.802 380.154 318.647 381.881ZM105.937 451.381C102.092 449.655 97.7142 451.319 95.9879 455.165C94.2615 459.01 95.9262 463.387 99.7712 465.113C103.616 466.84 107.994 465.175 109.72 461.33C111.446 457.485 109.782 453.108 105.937 451.381ZM158.903 590.666C155.058 588.939 150.681 590.604 148.954 594.449C147.228 598.294 148.893 602.672 152.738 604.398C156.583 606.124 160.96 604.46 162.686 600.615C164.413 596.77 162.748 592.392 158.903 590.666ZM263.718 357.218C267.563 358.945 271.941 357.28 273.667 353.435C275.393 349.59 273.729 345.212 269.884 343.486C266.039 341.76 261.661 343.424 259.935 347.269C258.208 351.114 259.873 355.492 263.718 357.218ZM242.139 405.281C249.691 408.672 258.645 405.267 262.036 397.714C265.427 390.162 262.022 381.208 254.47 377.817C246.917 374.425 237.963 377.83 234.572 385.383C231.181 392.936 234.586 401.89 242.139 405.281ZM208.228 480.808C196.83 475.691 183.499 480.76 178.381 492.158C173.264 503.556 178.333 516.887 189.731 522.005C201.129 527.122 214.46 522.053 219.578 510.655C224.695 499.257 219.626 485.926 208.228 480.808ZM315.003 536.999C307.45 533.608 298.496 537.013 295.105 544.565C291.714 552.118 295.119 561.072 302.671 564.463C310.224 567.854 319.178 564.449 322.569 556.897C325.96 549.344 322.555 540.39 315.003 536.999ZM290.34 591.928C282.788 588.537 273.834 591.942 270.443 599.494C267.051 607.047 270.456 616.001 278.009 619.392C285.562 622.783 294.516 619.378 297.907 611.825C301.298 604.273 297.893 595.319 290.34 591.928ZM339.665 482.07C332.112 478.679 323.158 482.084 319.767 489.637C316.376 497.189 319.781 506.143 327.334 509.534C334.887 512.926 343.841 509.521 347.232 501.968C350.623 494.415 347.218 485.461 339.665 482.07ZM364.327 427.141C356.775 423.75 347.821 427.155 344.43 434.708C341.038 442.261 344.443 451.215 351.996 454.606C359.549 457.997 368.503 454.592 371.894 447.039C375.285 439.486 371.88 430.532 364.327 427.141ZM353.116 562.362C349.271 560.635 344.894 562.3 343.168 566.145C341.441 569.99 343.106 574.368 346.951 576.094C350.796 577.82 355.173 576.156 356.9 572.311C358.626 568.466 356.962 564.088 353.116 562.362ZM235.411 567.265C227.859 563.874 218.905 567.279 215.514 574.832C212.123 582.385 215.528 591.339 223.08 594.73C230.633 598.121 239.587 594.716 242.978 587.163C246.369 579.61 242.964 570.656 235.411 567.265ZM213.832 615.328C209.987 613.602 205.609 615.266 203.883 619.111C202.157 622.956 203.821 627.334 207.666 629.06C211.511 630.787 215.889 629.122 217.615 625.277C219.342 621.432 217.677 617.054 213.832 615.328ZM232.89 425.879C221.492 420.762 208.161 425.831 203.043 437.229C197.926 448.627 202.996 461.958 214.393 467.076C225.791 472.193 239.123 467.124 244.24 455.726C249.358 444.328 244.288 430.997 232.89 425.879ZM180.483 542.603C172.93 539.212 163.976 542.617 160.585 550.17C157.194 557.722 160.599 566.676 168.151 570.067C175.704 573.458 184.658 570.054 188.049 562.501C191.44 554.948 188.035 545.994 180.483 542.603ZM263.157 505.47C251.759 500.353 238.427 505.423 233.31 516.82C228.193 528.218 233.262 541.55 244.66 546.667C256.058 551.784 269.389 546.715 274.507 535.317C279.624 523.919 274.554 510.588 263.157 505.47ZM287.819 450.542C276.421 445.424 263.09 450.494 257.972 461.892C252.855 473.289 257.924 486.621 269.322 491.738C280.72 496.856 294.051 491.786 299.169 480.388C304.286 468.991 299.217 455.659 287.819 450.542Z" attr.fill="{{secondaryFill}}" attr.fill-opacity="{{secondaryOpacity}}"/>
<path d="M221.72 331.746C208.52 336.003 201.286 350.163 205.543 363.362C209.8 376.562 223.944 383.828 237.143 379.571C250.367 375.306 257.625 361.139 253.368 347.939C249.111 334.74 234.943 327.482 221.72 331.746ZM235.625 374.781C225.056 378.189 213.734 372.389 210.326 361.82C206.917 351.251 212.717 339.93 223.286 336.521C233.855 333.112 245.177 338.912 248.585 349.482C251.994 360.051 246.194 371.372 235.625 374.781ZM237.054 350.561C239.038 349.92 240.124 347.802 239.484 345.817C238.844 343.832 236.725 342.747 234.74 343.387C232.755 344.027 231.67 346.146 232.31 348.13C232.95 350.115 235.069 351.201 237.054 350.561ZM220.315 355.959C222.3 355.319 223.385 353.2 222.745 351.215C222.105 349.23 219.986 348.145 218.001 348.785C216.017 349.425 214.931 351.544 215.571 353.529C216.211 355.513 218.33 356.599 220.315 355.959ZM233.697 368.803C239.268 367.006 242.877 361.988 243.217 356.493L218.779 364.374C222.265 368.635 228.125 370.599 233.697 368.803Z" attr.fill="{{primaryFill}}"/>
<path d="M401.825 442.26L391.843 449.279C389.098 451.21 385.272 450.544 383.342 447.798L351.753 402.88C349.822 400.135 350.489 396.31 353.234 394.379L363.216 387.359L401.825 442.26ZM277.863 476.326C276.436 475.465 275.189 474.328 274.206 472.93L270.416 467.54C266.555 462.05 267.888 454.399 273.378 450.538L300.828 431.234L279.915 411.255C278.894 410.333 278.201 409.029 277.998 407.68C277.567 404.627 277.575 401.563 278.108 398.503L278.754 394.542L333.245 404.035C336.476 404.598 339.314 406.406 341.174 409.052L368.692 448.18C373.184 454.569 371.629 463.495 365.191 468.023L324.714 496.488C321.22 498.945 316.627 499.415 312.724 497.684L277.863 476.326Z" attr.fill="{{primaryFill}}"/>
<path d="M516.277 472.902L459.827 414.426C457.386 411.936 453.885 411.104 450.64 411.691C447.396 412.278 444.408 414.285 443.014 417.574L410.625 492.026L362.057 500.818C356.48 501.827 352.744 507.216 353.753 512.792C353.918 513.705 354.185 514.599 354.654 515.457L397.422 604.787C401.296 612.882 410.241 617.755 419.569 616.067L551.381 592.207C560.71 590.518 567.379 582.819 568.271 573.861L577.011 475.207L576.82 472.414C575.81 466.838 570.422 463.101 564.845 464.11L516.277 472.902ZM433.033 487.97L455.376 437.851L493.869 476.958L433.033 487.97ZM478.134 563.579C466.981 565.598 456.203 558.124 454.184 546.971C452.166 535.818 459.639 525.04 470.792 523.022C481.946 521.003 492.723 528.476 494.742 539.63C496.761 550.783 489.287 561.56 478.134 563.579Z" attr.fill="{{primaryFill}}"/>
<path d="M437.576 84.9459C365.342 111.567 328.323 191.798 354.945 264.032C381.566 336.266 461.796 373.285 534.03 346.663C606.264 320.042 643.283 239.812 616.662 167.578C590.041 95.3436 509.81 58.3246 437.576 84.9459ZM533.625 288.697L542.836 313.691L507.897 326.568L498.589 301.312C474.476 304.848 450.197 297.447 439.401 272.591L465.049 263.138C471.422 276.396 484.798 283.654 508.745 274.829C534.394 265.376 535.425 250.43 532.483 242.448C528.48 231.586 518.961 223.501 487.223 227.32C451.877 231.429 424.712 226.28 414.825 199.454C406.53 176.946 419.318 155.587 440.041 142.45L430.734 117.194L465.673 104.318L475.077 129.835C501.587 126.753 520.557 140.719 528.721 160.451L503.073 169.904C497.065 155.62 485.679 148.52 465.003 156.14C445.375 163.374 436.877 176.613 441.507 189.175C445.558 200.167 456.716 204.23 485.657 201.292C514.598 198.355 547.06 199.323 559.213 232.299C567.908 256.295 554.803 275.988 533.625 288.697Z" attr.fill="{{primaryFill}}"/>
<path d="M545.62 403.642L553.585 396.238L564.455 395.898L557.051 387.933L556.71 377.063L548.745 384.467L537.876 384.807L545.279 392.773L545.62 403.642ZM520.009 394.906L519.328 373.167L503.397 387.974L481.658 388.655L496.465 404.586L497.147 426.325L513.077 411.518L534.816 410.837L520.009 394.906ZM537.302 423.576L529.337 430.98L518.467 431.32L525.871 439.286L526.211 450.155L534.177 442.752L545.046 442.411L537.642 434.446L537.302 423.576Z" attr.fill="{{primaryFill}}"/>
<path d="M318.406 329.402H296.806V336.602H318.406V329.402ZM326.218 317.738L318.586 310.106L313.51 315.182L321.142 322.814L326.218 317.738ZM340.006 293.402H332.806V315.002H340.006V293.402ZM359.302 315.182L354.226 310.106L346.594 317.738L351.67 322.814L359.302 315.182ZM354.406 329.402V336.602H376.006V329.402H354.406ZM336.406 322.202C330.43 322.202 325.606 327.026 325.606 333.002C325.606 338.978 330.43 343.802 336.406 343.802C342.382 343.802 347.206 338.978 347.206 333.002C347.206 327.026 342.382 322.202 336.406 322.202ZM346.594 348.266L354.226 355.898L359.302 350.822L351.67 343.19L346.594 348.266ZM313.51 350.822L318.586 355.898L326.218 348.266L321.142 343.19L313.51 350.822ZM332.806 372.602H340.006V351.002H332.806V372.602Z" attr.fill="{{primaryFill}}"/>
<path d="M726.966 213.857C725.632 213.095 724.251 212.475 722.87 211.952C724.251 211.428 725.632 210.809 726.966 210.047C736.11 204.76 741.206 195.188 741.253 185.329C732.728 180.424 721.87 180.043 712.678 185.329C711.345 186.091 710.107 186.996 708.964 187.901C709.202 186.425 709.345 184.901 709.345 183.377C709.345 172.804 703.582 163.612 695.057 158.659C686.532 163.612 680.77 172.804 680.77 183.377C680.77 184.901 680.912 186.425 681.151 187.901C680.008 186.948 678.769 186.044 677.436 185.282C668.292 179.995 657.433 180.376 648.861 185.282C648.861 195.14 653.957 204.713 663.148 209.999C664.482 210.761 665.863 211.38 667.244 211.904C665.863 212.428 664.482 213.047 663.148 213.809C654.004 219.095 648.908 228.668 648.861 238.526C657.386 243.432 668.244 243.813 677.436 238.526C678.769 237.764 680.008 236.859 681.151 235.955C680.912 237.479 680.77 239.003 680.77 240.527C680.77 251.099 686.532 260.291 695.057 265.244C703.582 260.291 709.345 251.099 709.345 240.527C709.345 239.003 709.202 237.479 708.964 236.002C710.107 236.955 711.345 237.812 712.678 238.574C721.822 243.86 732.681 243.479 741.253 238.574C741.206 228.716 736.11 219.143 726.966 213.857ZM695.057 231.002C684.532 231.002 676.007 222.477 676.007 211.952C676.007 201.426 684.532 192.902 695.057 192.902C705.582 192.902 714.107 201.426 714.107 211.952C714.107 222.477 705.582 231.002 695.057 231.002Z" attr.fill="{{primaryFill}}"/>
<path d="M591.519 380.236L662.905 364.83L624.821 315.242L591.519 380.236Z" attr.fill="{{primaryFill}}"/>
<path d="M658.603 342.118L689.403 318.464C692.103 316.39 695.951 316.895 698.024 319.595L700.521 322.846L706.362 318.36L703.865 315.109C699.337 309.214 690.813 308.095 684.918 312.623L654.117 336.278L658.603 342.118Z" attr.fill="{{primaryFill}}"/>
<path d="M640.442 311.742L637.191 314.239L641.677 320.079L644.927 317.583C650.823 313.055 651.941 304.531 647.414 298.635L644.917 295.385L639.07 299.919L641.567 303.17C643.598 305.814 643.087 309.711 640.442 311.742Z" attr.fill="{{primaryFill}}"/>
<path d="M671.341 340.57L662.58 347.298L667.066 353.138L675.826 346.41C678.526 344.336 682.374 344.841 684.448 347.541L691.261 356.412L697.101 351.927L690.288 343.056C685.712 337.154 677.237 336.042 671.341 340.57Z" attr.fill="{{primaryFill}}"/>
<path d="M665.434 310.066L645.654 325.258L650.139 331.098L669.919 315.907C675.815 311.379 676.934 302.855 672.406 296.96L665.677 288.199L659.837 292.684L666.565 301.445C668.59 304.139 668.079 308.035 665.434 310.066Z" attr.fill="{{primaryFill}}"/>
<path d="M276.263 204.847C246.074 194.103 212.908 209.903 202.164 240.092C191.419 270.28 207.146 303.482 237.334 314.226C267.578 324.99 300.798 309.209 311.543 279.02C322.287 248.832 306.506 215.611 276.263 204.847ZM268.308 300.603L250.138 278.424L222.041 284.136L237.528 260.011L223.416 235.086L251.141 242.365L270.478 221.273L272.161 249.785L298.251 261.658L271.565 272.063L268.308 300.603Z" attr.fill="{{primaryFill}}"/>
</svg>
