<svg width="139" height="117" viewBox="0 0 139 117" fill="none" xmlns="http://www.w3.org/2000/svg">
<path d="M80.3869 11.9227L59.8705 15.4514C56.8297 10.1124 50.7216 6.91811 44.3408 8.01556C37.9601 9.11301 33.2702 14.1645 32.188 20.2127L11.6715 23.7414C6.27243 24.67 2.61478 29.8472 3.54339 35.2463L15.3621 103.962C16.2907 109.361 21.4679 113.018 26.8669 112.09L95.5824 100.271C100.981 99.3425 104.639 94.1653 103.71 88.7662L91.8918 20.0508C90.9632 14.6517 85.786 10.9941 80.3869 11.9227ZM46.0292 17.832C48.7287 17.3677 51.3173 19.1966 51.7817 21.8961C52.246 24.5956 50.4171 27.1842 47.7176 27.6485C45.0181 28.1128 42.4295 26.284 41.9652 23.5845C41.5009 20.8849 43.3297 18.2964 46.0292 17.832ZM49.406 37.465C57.5537 36.0637 65.2619 41.5095 66.6633 49.6572C68.0646 57.8049 62.6188 65.5131 54.4711 66.9145C46.3234 68.3159 38.6152 62.87 37.2138 54.7223C35.8125 46.5747 41.2583 38.8664 49.406 37.465ZM88.9858 91.2988L30.0868 101.429L28.9049 94.5576C27.2166 84.7411 45.9209 75.9653 55.7374 74.2769C65.5539 72.5885 86.1155 74.6108 87.8039 84.4273L88.9858 91.2988Z" attr.fill="{{primaryFill}}"/>
<path d="M73.3 103.208V116.708H86.8L126.616 76.8924L113.116 63.3924L73.3 103.208ZM137.056 66.4524C138.46 65.0484 138.46 62.7804 137.056 61.3764L128.632 52.9524C127.228 51.5484 124.96 51.5484 123.556 52.9524L116.968 59.5404L130.468 73.0404L137.056 66.4524Z" attr.fill="{{secondaryFill}}"/>
</svg>
