<svg width="40" height="43" viewBox="0 0 40 43" fill="none" xmlns="http://www.w3.org/2000/svg">
<path d="M19.9753 12.1861C14.4461 12.1861 9.98622 16.364 9.98622 21.5435C9.98622 26.7231 14.4461 30.9009 19.9753 30.9009C25.5044 30.9009 29.9643 26.7231 29.9643 21.5435C29.9643 16.364 25.5044 12.1861 19.9753 12.1861ZM19.9753 27.6271C16.4022 27.6271 13.4811 24.8988 13.4811 21.5435C13.4811 18.1882 16.3935 15.46 19.9753 15.46C23.5571 15.46 26.4694 18.1882 26.4694 21.5435C26.4694 24.8988 23.5484 27.6271 19.9753 27.6271ZM32.7028 11.8033C32.7028 13.0168 31.6596 13.9859 30.3729 13.9859C29.0775 13.9859 28.043 13.0086 28.043 11.8033C28.043 10.598 29.0862 9.62075 30.3729 9.62075C31.6596 9.62075 32.7028 10.598 32.7028 11.8033ZM39.3187 14.0185C39.1709 11.0948 38.458 8.50502 36.1716 6.37131C33.8938 4.23759 31.1293 3.56978 28.0082 3.42319C24.7916 3.25217 15.1503 3.25217 11.9336 3.42319C8.82127 3.56164 6.05668 4.22944 3.77024 6.36316C1.48381 8.49688 0.779618 11.0867 0.623131 14.0103C0.440564 17.0236 0.440564 26.0553 0.623131 29.0685C0.770924 31.9922 1.48381 34.582 3.77024 36.7157C6.05668 38.8494 8.81258 39.5173 11.9336 39.6638C15.1503 39.8349 24.7916 39.8349 28.0082 39.6638C31.1293 39.5254 33.8938 38.8576 36.1716 36.7157C38.4493 34.582 39.1622 31.9922 39.3187 29.0685C39.5013 26.0553 39.5013 17.0318 39.3187 14.0185ZM35.1631 32.3017C34.485 33.8979 33.1723 35.1277 31.4596 35.771C28.895 36.7239 22.8094 36.504 19.9753 36.504C17.1411 36.504 11.0469 36.7157 8.49091 35.771C6.78695 35.1358 5.4742 33.9061 4.7874 32.3017C3.77024 29.8992 4.00497 24.1985 4.00497 21.5435C4.00497 18.8886 3.77894 13.1797 4.7874 10.7853C5.46551 9.18912 6.77826 7.95938 8.49091 7.31601C11.0555 6.36316 17.1411 6.58305 19.9753 6.58305C22.8094 6.58305 28.9037 6.37131 31.4596 7.31601C33.1636 7.95123 34.4763 9.18097 35.1631 10.7853C36.1803 13.1878 35.9455 18.8886 35.9455 21.5435C35.9455 24.1985 36.1803 29.9074 35.1631 32.3017Z" fill="currentColor"/>
</svg>
