<svg width="19" height="19" viewBox="0 0 19 19" fill="none" xmlns="http://www.w3.org/2000/svg">
<path d="M13.1 6.39961C14.09 6.39961 14.9 7.20961 14.9 8.19961V17.1996C14.9 18.1896 14.09 18.9996 13.1 18.9996H2.3C1.31 18.9996 0.5 18.1896 0.5 17.1996V8.19961C0.5 7.20961 1.31 6.39961 2.3 6.39961H10.4V4.59961C10.4 3.06961 9.23 1.89961 7.7 1.89961C6.17 1.89961 5 3.06961 5 4.59961H3.2C3.2 2.07961 5.18 0.0996094 7.7 0.0996094C10.22 0.0996094 12.2 2.07961 12.2 4.59961V6.39961H13.1ZM7.7 14.4996C8.69 14.4996 9.5 13.6896 9.5 12.6996C9.5 11.7096 8.69 10.8996 7.7 10.8996C6.71 10.8996 5.9 11.7096 5.9 12.6996C5.9 13.6896 6.71 14.4996 7.7 14.4996ZM18.5 10.8996H16.7V5.49961H18.5V10.8996ZM18.5 14.4996H16.7V12.6996H18.5V14.4996Z" fill="#FFC700"/>
</svg>
