<svg width="128" height="121" viewBox="0 0 128 121" fill="none" xmlns="http://www.w3.org/2000/svg">
<path d="M69.2 3.70117H18.8C14.84 3.70117 11.636 6.94117 11.636 10.9012L11.6 57.4492C11.6 59.9332 12.86 62.1292 14.768 63.4252L44 82.9012L73.196 63.4252C75.104 62.1292 76.364 59.9332 76.364 57.4492L76.4 10.9012C76.4 6.94117 73.16 3.70117 69.2 3.70117ZM36.8 57.7012L18.8 39.7012L23.876 34.6252L36.8 47.5132L64.124 20.1892L69.2 25.3012L36.8 57.7012Z" fill="currentColor"/>
<path d="M90.954 93.6628C93.8849 92.8682 95.6328 89.8201 94.8381 86.8892C94.0435 83.9583 90.9954 82.2104 88.0645 83.005C85.1336 83.7996 83.3857 86.8478 84.1803 89.7787C84.9749 92.7096 88.0231 94.4575 90.954 93.6628ZM100.439 65.3484L97.7749 66.0708L96.3301 60.7419C94.3363 53.388 86.7498 49.0377 79.3959 51.0315C72.042 53.0253 67.6917 60.6118 69.6855 67.9657L71.1303 73.2946L68.4658 74.017C65.5349 74.8116 63.787 77.8598 64.5816 80.7907L71.8055 107.435C72.6001 110.366 75.6482 112.114 78.5791 111.319L110.553 102.651C113.484 101.856 115.231 98.8081 114.437 95.8772L107.213 69.2326C106.418 66.3017 103.37 64.5538 100.439 65.3484ZM74.748 66.5932C73.5127 62.0369 76.2122 57.3292 80.7684 56.094C85.3246 54.8587 90.0323 57.5582 91.2676 62.1144L92.7124 67.4433L76.1927 71.9221L74.748 66.5932ZM109.108 97.3219L77.1344 105.991L69.9106 79.3459L101.884 70.6773L109.108 97.3219Z" fill="currentColor"/>
</svg>
