<svg width="48" height="61" viewBox="0 0 48 61" fill="none" xmlns="http://www.w3.org/2000/svg">
<path d="M42.9691 27.8098C42.1928 26.7973 41.2478 25.9198 40.3703 25.0423C38.1091 23.0173 35.5441 21.566 33.3841 19.4398C28.3553 14.5123 27.2416 6.37852 30.4478 0.134766C27.2416 0.911016 24.4403 2.66602 22.0441 4.58977C13.3028 11.6098 9.86031 23.996 13.9778 34.6273C14.1128 34.9648 14.2478 35.3023 14.2478 35.741C14.2478 36.4835 13.7416 37.1585 13.0666 37.4285C12.2903 37.766 11.4803 37.5635 10.8391 37.0235C10.6366 36.8548 10.5016 36.686 10.3666 36.4498C6.55281 31.6235 5.94531 24.7048 8.51031 19.1698C2.87406 23.7598 -0.197188 31.5223 0.241562 38.846C0.444062 40.5335 0.646562 42.221 1.22031 43.9085C1.69281 45.9335 2.60406 47.9585 3.61656 49.7473C7.26156 55.586 13.5728 59.771 20.3566 60.6148C27.5791 61.526 35.3078 60.2098 40.8428 55.2148C47.0191 49.6123 49.1791 40.6348 46.0066 32.9398L45.5678 32.0623C44.8591 30.5098 42.9691 27.8098 42.9691 27.8098ZM32.3041 49.0723C31.3591 49.8823 29.8066 50.7598 28.5916 51.0973C24.8116 52.4473 21.0316 50.5573 18.8041 48.3298C22.8203 47.3848 25.2166 44.4148 25.9253 41.411C26.4991 38.711 25.4191 36.4835 24.9803 33.8848C24.5753 31.3873 24.6428 29.261 25.5541 26.9323C26.1953 28.2148 26.8703 29.4973 27.6803 30.5098C30.2791 33.8848 34.3628 35.3698 35.2403 39.9598C35.3753 40.4323 35.4428 40.9048 35.4428 41.411C35.5441 44.1785 34.3291 47.216 32.3041 49.0723Z" fill="white"/>
</svg>
