<svg width="96" height="96" viewBox="0 0 96 96" fill="none" xmlns="http://www.w3.org/2000/svg">
<g clip-path="url(#clip0_543_86)">
<path d="M48 28C59.04 28 68 36.96 68 48C68 50.6 67.48 53.04 66.56 55.32L78.24 67C84.28 61.96 89.04 55.44 91.96 48C85.04 30.44 67.96 18 47.96 18C42.36 18 37 19 32.04 20.8L40.68 29.44C42.96 28.52 45.4 28 48 28ZM8 17.08L17.12 26.2L18.96 28.04C12.32 33.2 7.12 40.08 4 48C10.92 65.56 28 78 48 78C54.2 78 60.12 76.8 65.52 74.64L67.2 76.32L78.92 88L84 82.92L13.08 12L8 17.08ZM30.12 39.2L36.32 45.4C36.12 46.24 36 47.12 36 48C36 54.64 41.36 60 48 60C48.88 60 49.76 59.88 50.6 59.68L56.8 65.88C54.12 67.2 51.16 68 48 68C36.96 68 28 59.04 28 48C28 44.84 28.8 41.88 30.12 39.2ZM47.36 36.08L59.96 48.68L60.04 48.04C60.04 41.4 54.68 36.04 48.04 36.04L47.36 36.08Z" fill="black"/>
</g>
<defs>
<clipPath id="clip0_543_86">
<rect width="96" height="96" fill="white"/>
</clipPath>
</defs>
</svg>
