<svg width="167" height="172" viewBox="0 0 167 172" fill="none" xmlns="http://www.w3.org/2000/svg">
<g clip-path="url(#clip0_543_51)">
<path d="M87.425 13.8252H23.375C18.3425 13.8252 14.225 17.9427 14.225 22.9752V87.0252C14.225 92.0577 18.3425 96.1752 23.375 96.1752H87.425C92.4575 96.1752 96.575 92.0577 96.575 87.0252V22.9752C96.575 17.9427 92.4575 13.8252 87.425 13.8252ZM64.55 77.8752H32.525V68.7252H64.55V77.8752ZM78.275 59.5752H32.525V50.4252H78.275V59.5752ZM78.275 41.2752H32.525V32.1252H78.275V41.2752Z" fill="#4387FF"/>
</g>
<g clip-path="url(#clip1_543_51)">
<path d="M152.098 90.7302L121.438 61.7808C119.311 59.7724 116.015 59.8856 114.006 62.0126L92.2751 84.9891C90.2668 87.1161 90.3619 90.4318 92.4889 92.4402L123.148 121.39C125.275 123.398 128.591 123.303 130.599 121.176L152.311 98.1813C154.32 96.0543 154.225 92.7385 152.098 90.7302ZM126.767 117.557L96.1076 88.6078L106.964 77.1105L137.623 106.06L126.767 117.557ZM144.86 98.395L114.201 69.4456L117.82 65.6132L148.479 94.5626L144.86 98.395Z" fill="#84B0FF"/>
</g>
<g clip-path="url(#clip2_543_51)">
<path d="M127.1 152.932C124.475 152.932 121.955 152.504 119.603 151.713C118.868 151.478 118.049 151.649 117.461 152.226L112.841 156.929C106.898 153.851 102.026 148.913 99.002 142.843L103.622 138.119C104.21 137.563 104.378 136.729 104.147 135.981C103.37 133.587 102.95 131.022 102.95 128.35C102.95 127.175 102.005 126.213 100.85 126.213H93.5C92.345 126.213 91.4 127.175 91.4 128.35C91.4 148.422 107.381 164.688 127.1 164.688C128.255 164.688 129.2 163.726 129.2 162.55V155.069C129.2 153.894 128.255 152.932 127.1 152.932ZM125 145.45H129.2C129.2 134.827 120.737 126.213 110.3 126.213V130.488C118.427 130.488 125 137.178 125 145.45ZM116.6 145.45H120.8C120.8 139.551 116.096 134.763 110.3 134.763V139.038C113.786 139.038 116.6 141.902 116.6 145.45Z" fill="#4387FF"/>
</g>
<g clip-path="url(#clip3_543_51)">
<path d="M43.7515 103.699C34.8641 108.141 31.2568 118.96 35.6996 127.847C40.1423 136.735 50.961 140.342 59.8484 135.899L67.8986 131.875L66.2889 128.655L58.2387 132.679C51.2511 136.172 42.4127 133.225 38.9196 126.238C35.4266 119.25 38.3736 110.412 45.3612 106.919C52.3488 103.426 61.1872 106.373 64.6803 113.36L65.8312 115.663C66.467 116.935 65.9517 118.762 64.6797 119.398C63.4078 120.033 61.6369 119.349 61.0011 118.077L59.8502 115.775C57.6288 111.331 52.2194 109.527 47.7757 111.749C43.332 113.97 41.5284 119.38 43.7498 123.823C45.9711 128.267 51.3805 130.071 55.8242 127.849C58.046 126.739 59.624 124.823 60.3406 122.633C62.1034 123.543 64.3735 123.575 66.2894 122.618C69.4612 121.032 70.6368 117.225 69.0513 114.053L67.9003 111.751C63.4576 102.863 52.6389 99.2559 43.7515 103.699ZM54.2145 124.629C51.5418 125.965 48.3059 124.886 46.9698 122.214C45.6338 119.541 46.7128 116.305 49.3854 114.969C52.0581 113.633 55.294 114.712 56.6301 117.384C57.9661 120.057 56.8872 123.293 54.2145 124.629Z" fill="#4387FF"/>
</g>
<defs>
<clipPath id="clip0_543_51">
<rect width="109.8" height="109.8" fill="white" transform="translate(0.5 0.0996094)"/>
</clipPath>
<clipPath id="clip1_543_51">
<rect width="63.2507" height="63.2507" fill="white" transform="translate(121.011 46.8789) rotate(43.3568)"/>
</clipPath>
<clipPath id="clip2_543_51">
<rect width="50.4" height="51.3" fill="white" transform="translate(85.1 119.8)"/>
</clipPath>
<clipPath id="clip3_543_51">
<rect width="43.2" height="43.2" fill="white" transform="translate(22.8214 110.138) rotate(-26.5601)"/>
</clipPath>
</defs>
</svg>
