<svg width="101" height="101" viewBox="0 0 101 101" fill="none" xmlns="http://www.w3.org/2000/svg">
<circle cx="50.1492" cy="50.5496" r="49.95" fill="#4387FF"/>
<g clip-path="url(#clip0_195_264)">
<path d="M50.6011 70.4219C50.6011 59.6826 59.2868 50.9969 70.0261 50.9969C73.0231 50.9969 75.8258 51.6906 78.3511 52.8839V34.3469C78.3511 31.2944 75.8536 28.7969 72.8011 28.7969H28.4011C25.3486 28.7969 22.8511 31.2944 22.8511 34.3469V67.6469C22.8511 70.6994 25.3486 73.1969 28.4011 73.1969H50.8231C50.6843 72.2811 50.6011 71.3654 50.6011 70.4219ZM28.4011 34.3469L50.6011 48.2219L72.8011 34.3469V39.8969L50.6011 53.7719L28.4011 39.8969V34.3469ZM65.4196 78.7469L55.5961 68.9234L59.5088 65.0106L65.3918 70.8936L77.1578 59.1276L81.1261 63.0404L65.4196 78.7469Z" fill="white"/>
</g>
<defs>
<clipPath id="clip0_195_264">
<rect width="66.6" height="66.6" fill="white" transform="translate(17.2998 17.6992)"/>
</clipPath>
</defs>
</svg>
