<svg width="275" height="28" viewBox="0 0 275 28" fill="none" xmlns="http://www.w3.org/2000/svg">
<path d="M4.1541 0.313671V19.7568H15.8137V23H0.910938V0.313671H4.1541ZM39.1486 19.7568C39.1486 20.1998 39.0643 20.6217 38.8955 21.0225C38.7268 21.4127 38.4947 21.7555 38.1994 22.0508C37.9041 22.3461 37.5561 22.5781 37.1553 22.7469C36.765 22.9156 36.3484 23 35.9055 23H22.9486C22.5057 23 22.0838 22.9156 21.683 22.7469C21.2928 22.5781 20.95 22.3461 20.6547 22.0508C20.3594 21.7555 20.1273 21.4127 19.9586 21.0225C19.7898 20.6217 19.7055 20.1998 19.7055 19.7568V3.55684C19.7055 3.11387 19.7898 2.69726 19.9586 2.30703C20.1273 1.90625 20.3594 1.56348 20.6547 1.27871C20.95 0.983397 21.2928 0.751366 21.683 0.582616C22.0838 0.403319 22.5057 0.313671 22.9486 0.313671H35.9055C36.3484 0.313671 36.765 0.403319 37.1553 0.582616C37.5561 0.751366 37.9041 0.983397 38.1994 1.27871C38.4947 1.56348 38.7268 1.90625 38.8955 2.30703C39.0643 2.69726 39.1486 3.11387 39.1486 3.55684V19.7568ZM22.9486 3.55684V19.7568H35.9055V3.55684H22.9486ZM46.4893 0.313671L53.0863 10.9133L59.6992 0.313671H63.4645L54.7158 13.9982V23H51.4727V13.9982L42.724 0.313671H46.4893ZM74.4912 0.313671L83.2398 23H79.9967L77.9875 17.7793H67.7518L65.7426 23H62.4994L71.2481 0.313671H74.4912ZM68.9857 14.5361H76.7377L72.8775 4.53769L68.9857 14.5361ZM90.3748 0.313671V19.7568H102.034V23H87.1316V0.313671H90.3748Z" fill="#206CFF"/>
<path d="M115.323 12.3055H122.901V15.4221H115.323V12.3055Z" fill="#DBDBDB"/>
<path d="M141.38 13.2863C140.937 13.2863 140.515 13.202 140.114 13.0332C139.724 12.8539 139.381 12.6219 139.086 12.3371C138.79 12.0418 138.558 11.699 138.389 11.3088C138.221 10.908 138.136 10.4861 138.136 10.0432V3.55684C138.136 3.11387 138.221 2.69726 138.389 2.30703C138.558 1.90625 138.79 1.56348 139.086 1.27871C139.381 0.983397 139.724 0.751366 140.114 0.582616C140.515 0.403319 140.937 0.313671 141.38 0.313671H152.39C152.833 0.313671 153.25 0.403319 153.64 0.582616C154.041 0.751366 154.389 0.983397 154.684 1.27871C154.98 1.56348 155.212 1.90625 155.38 2.30703C155.549 2.69726 155.634 3.11387 155.634 3.55684V6.48359H152.39V3.55684H141.38V10.0432H152.39C152.833 10.0432 153.25 10.1275 153.64 10.2963C154.041 10.465 154.389 10.6971 154.684 10.9924C154.98 11.2877 155.212 11.6357 155.38 12.0365C155.549 12.4268 155.634 12.8434 155.634 13.2863V19.7568C155.634 20.1998 155.549 20.6217 155.38 21.0225C155.212 21.4127 154.98 21.7555 154.684 22.0508C154.389 22.3461 154.041 22.5781 153.64 22.7469C153.25 22.9156 152.833 23 152.39 23H141.063C140.62 23 140.198 22.9156 139.797 22.7469C139.407 22.5781 139.064 22.3461 138.769 22.0508C138.474 21.7555 138.242 21.4127 138.073 21.0225C137.904 20.6217 137.82 20.1998 137.82 19.7568V16.8459H141.063V19.7568H152.39V13.2863H141.38ZM180.93 19.7568C180.93 20.1998 180.846 20.6217 180.677 21.0225C180.508 21.4127 180.276 21.7555 179.981 22.0508C179.686 22.3461 179.338 22.5781 178.937 22.7469C178.547 22.9156 178.13 23 177.687 23H172.83V27.2082H169.587V23H164.73C164.287 23 163.865 22.9156 163.465 22.7469C163.074 22.5781 162.732 22.3461 162.436 22.0508C162.141 21.7555 161.909 21.4127 161.74 21.0225C161.571 20.6217 161.487 20.1998 161.487 19.7568V3.55684C161.487 3.11387 161.571 2.69726 161.74 2.30703C161.909 1.90625 162.141 1.56348 162.436 1.27871C162.732 0.983397 163.074 0.751366 163.465 0.582616C163.865 0.403319 164.287 0.313671 164.73 0.313671H177.687C178.13 0.313671 178.547 0.403319 178.937 0.582616C179.338 0.751366 179.686 0.983397 179.981 1.27871C180.276 1.56348 180.508 1.90625 180.677 2.30703C180.846 2.69726 180.93 3.11387 180.93 3.55684V19.7568ZM172.83 17.1307V19.7568H177.687V3.55684H164.73V19.7568H169.587V17.1307H172.83ZM186.768 0.313671H190.011V19.7568H202.968V0.313671H206.211V19.7568C206.211 20.1998 206.127 20.6217 205.958 21.0225C205.789 21.4127 205.557 21.7555 205.262 22.0508C204.967 22.3461 204.619 22.5781 204.218 22.7469C203.828 22.9156 203.411 23 202.968 23H190.011C189.568 23 189.146 22.9156 188.746 22.7469C188.355 22.5781 188.013 22.3461 187.717 22.0508C187.422 21.7555 187.19 21.4127 187.021 21.0225C186.852 20.6217 186.768 20.1998 186.768 19.7568V0.313671ZM222.095 0.313671L230.843 23H227.6L225.591 17.7793H215.355L213.346 23H210.103L218.852 0.313671H222.095ZM216.589 14.5361H224.341L220.481 4.53769L216.589 14.5361ZM252.66 8.41367C252.66 11.5777 251.31 13.3812 248.61 13.8242L252.881 23H249.29L245.082 13.935H237.978V23H234.735V0.313671H247.154C250.824 0.313671 252.66 2.1541 252.66 5.83496V8.41367ZM237.978 10.6918H246.98C247.845 10.6918 248.467 10.502 248.847 10.1223C249.227 9.74258 249.416 9.12031 249.416 8.25547V5.99316C249.416 5.12832 249.227 4.50605 248.847 4.12637C248.467 3.74668 247.845 3.55684 246.98 3.55684H237.978V10.6918ZM258.086 0.313671H274.618V3.55684H261.329V10.0432H272.672V13.2863H261.329V19.7568H274.618V23H258.086V0.313671Z" fill="white"/>
</svg>
