<svg width="274" height="28" viewBox="0 0 274 28" fill="none" xmlns="http://www.w3.org/2000/svg">
<path d="M3.35405 0.813671V20.2568H15.0136V23.5H0.110889V0.813671H3.35405ZM38.3486 20.2568C38.3486 20.6998 38.2642 21.1217 38.0955 21.5225C37.9267 21.9127 37.6947 22.2555 37.3994 22.5508C37.1041 22.8461 36.756 23.0781 36.3552 23.2469C35.965 23.4156 35.5484 23.5 35.1054 23.5H22.1486C21.7056 23.5 21.2837 23.4156 20.883 23.2469C20.4927 23.0781 20.15 22.8461 19.8546 22.5508C19.5593 22.2555 19.3273 21.9127 19.1585 21.5225C18.9898 21.1217 18.9054 20.6998 18.9054 20.2568V4.05684C18.9054 3.61387 18.9898 3.19726 19.1585 2.80703C19.3273 2.40625 19.5593 2.06348 19.8546 1.77871C20.15 1.4834 20.4927 1.25137 20.883 1.08262C21.2837 0.903319 21.7056 0.813671 22.1486 0.813671H35.1054C35.5484 0.813671 35.965 0.903319 36.3552 1.08262C36.756 1.25137 37.1041 1.4834 37.3994 1.77871C37.6947 2.06348 37.9267 2.40625 38.0955 2.80703C38.2642 3.19726 38.3486 3.61387 38.3486 4.05684V20.2568ZM22.1486 4.05684V20.2568H35.1054V4.05684H22.1486ZM45.6892 0.813671L52.2863 11.4133L58.8992 0.813671H62.6644L53.9158 14.4982V23.5H50.6726V14.4982L41.924 0.813671H45.6892ZM73.6912 0.813671L82.4398 23.5H79.1966L77.1875 18.2793H66.9517L64.9425 23.5H61.6994L70.448 0.813671H73.6912ZM68.1857 15.0361H75.9377L72.0775 5.03769L68.1857 15.0361ZM89.5748 0.813671V20.2568H101.234V23.5H86.3316V0.813671H89.5748Z" fill="#206CFF"/>
<path d="M114.523 12.8055H122.101V15.9221H114.523V12.8055Z" fill="#DBDBDB"/>
<path d="M140.579 13.7863C140.136 13.7863 139.715 13.702 139.314 13.5332C138.924 13.3539 138.581 13.1219 138.286 12.8371C137.99 12.5418 137.758 12.199 137.589 11.8088C137.421 11.408 137.336 10.9861 137.336 10.5432V4.05684C137.336 3.61387 137.421 3.19726 137.589 2.80703C137.758 2.40625 137.99 2.06348 138.286 1.77871C138.581 1.4834 138.924 1.25137 139.314 1.08262C139.715 0.903319 140.136 0.813671 140.579 0.813671H151.59C152.033 0.813671 152.45 0.903319 152.84 1.08262C153.241 1.25137 153.589 1.4834 153.884 1.77871C154.18 2.06348 154.412 2.40625 154.58 2.80703C154.749 3.19726 154.834 3.61387 154.834 4.05684V6.98359H151.59V4.05684H140.579V10.5432H151.59C152.033 10.5432 152.45 10.6275 152.84 10.7963C153.241 10.965 153.589 11.1971 153.884 11.4924C154.18 11.7877 154.412 12.1357 154.58 12.5365C154.749 12.9268 154.834 13.3434 154.834 13.7863V20.2568C154.834 20.6998 154.749 21.1217 154.58 21.5225C154.412 21.9127 154.18 22.2555 153.884 22.5508C153.589 22.8461 153.241 23.0781 152.84 23.2469C152.45 23.4156 152.033 23.5 151.59 23.5H140.263C139.82 23.5 139.398 23.4156 138.997 23.2469C138.607 23.0781 138.264 22.8461 137.969 22.5508C137.674 22.2555 137.442 21.9127 137.273 21.5225C137.104 21.1217 137.02 20.6998 137.02 20.2568V17.3459H140.263V20.2568H151.59V13.7863H140.579ZM180.13 20.2568C180.13 20.6998 180.046 21.1217 179.877 21.5225C179.708 21.9127 179.476 22.2555 179.181 22.5508C178.886 22.8461 178.538 23.0781 178.137 23.2469C177.747 23.4156 177.33 23.5 176.887 23.5H172.03V27.7082H168.787V23.5H163.93C163.487 23.5 163.065 23.4156 162.665 23.2469C162.274 23.0781 161.932 22.8461 161.636 22.5508C161.341 22.2555 161.109 21.9127 160.94 21.5225C160.771 21.1217 160.687 20.6998 160.687 20.2568V4.05684C160.687 3.61387 160.771 3.19726 160.94 2.80703C161.109 2.40625 161.341 2.06348 161.636 1.77871C161.932 1.4834 162.274 1.25137 162.665 1.08262C163.065 0.903319 163.487 0.813671 163.93 0.813671H176.887C177.33 0.813671 177.747 0.903319 178.137 1.08262C178.538 1.25137 178.886 1.4834 179.181 1.77871C179.476 2.06348 179.708 2.40625 179.877 2.80703C180.046 3.19726 180.13 3.61387 180.13 4.05684V20.2568ZM172.03 17.6307V20.2568H176.887V4.05684H163.93V20.2568H168.787V17.6307H172.03ZM185.968 0.813671H189.211V20.2568H202.168V0.813671H205.411V20.2568C205.411 20.6998 205.327 21.1217 205.158 21.5225C204.989 21.9127 204.757 22.2555 204.462 22.5508C204.167 22.8461 203.819 23.0781 203.418 23.2469C203.028 23.4156 202.611 23.5 202.168 23.5H189.211C188.768 23.5 188.346 23.4156 187.945 23.2469C187.555 23.0781 187.212 22.8461 186.917 22.5508C186.622 22.2555 186.39 21.9127 186.221 21.5225C186.052 21.1217 185.968 20.6998 185.968 20.2568V0.813671ZM221.295 0.813671L230.043 23.5H226.8L224.791 18.2793H214.555L212.546 23.5H209.303L218.052 0.813671H221.295ZM215.789 15.0361H223.541L219.681 5.03769L215.789 15.0361ZM251.86 8.91367C251.86 12.0777 250.51 13.8812 247.81 14.3242L252.081 23.5H248.49L244.282 14.435H237.178V23.5H233.935V0.813671H246.354C250.024 0.813671 251.86 2.6541 251.86 6.33496V8.91367ZM237.178 11.1918H246.18C247.045 11.1918 247.667 11.002 248.047 10.6223C248.427 10.2426 248.616 9.62031 248.616 8.75547V6.49316C248.616 5.62832 248.427 5.00605 248.047 4.62637C247.667 4.24668 247.045 4.05684 246.18 4.05684H237.178V11.1918ZM257.286 0.813671H273.818V4.05684H260.529V10.5432H271.872V13.7863H260.529V20.2568H273.818V23.5H257.286V0.813671Z" fill="black"/>
</svg>
