<svg width="793" height="650" viewBox="0 0 793 650" fill="none" xmlns="http://www.w3.org/2000/svg">
<path d="M453.452 530.222C425.385 530.222 407.714 534.369 392.121 538.122C378.608 541.38 367.589 544.046 349.502 544.046C330.791 544.046 320.396 541.578 306.882 538.122C291.29 534.369 274.242 530.222 245.552 530.222C216.861 530.222 199.814 534.369 184.221 538.122C170.708 541.38 159.897 544.046 141.602 544.046V563.301C169.668 563.301 187.34 559.153 202.932 555.401C216.446 552.143 227.256 549.477 245.552 549.477C263.847 549.477 274.658 551.945 288.171 555.401C303.764 559.153 320.811 563.301 349.502 563.301C378.192 563.301 395.24 559.153 410.832 555.401C424.346 552.143 435.364 549.477 453.452 549.477C472.163 549.477 482.558 551.945 496.071 555.401C511.664 559.153 528.919 563.301 557.402 563.301V544.046C538.691 544.046 528.296 541.578 514.782 538.122C499.19 534.369 481.518 530.222 453.452 530.222ZM453.452 486.283C425.385 486.283 407.714 490.528 392.121 494.182C378.608 497.342 367.589 500.106 349.502 500.106C330.791 500.106 320.396 497.638 306.882 494.182C291.29 490.43 274.242 486.283 245.552 486.283C216.861 486.283 199.814 490.528 184.221 494.182C170.708 497.342 159.897 500.106 141.602 500.106V519.361C169.668 519.361 187.34 515.115 202.932 511.462C216.446 508.006 226.841 505.537 245.552 505.537C264.263 505.537 274.658 508.006 288.171 511.462C303.764 515.214 320.811 519.361 349.502 519.361C378.192 519.361 395.24 515.115 410.832 511.462C424.346 508.006 434.741 505.537 453.452 505.537C472.163 505.537 482.558 508.006 496.071 511.462C511.664 515.214 528.919 519.361 557.402 519.361V500.106C538.691 500.106 528.296 497.638 514.782 494.182C499.19 490.43 481.518 486.283 453.452 486.283ZM514.782 406.5C499.19 402.748 481.934 398.601 453.452 398.601C424.969 398.601 407.714 402.748 392.121 406.5C378.608 409.66 367.589 412.424 349.502 412.424C330.791 412.424 320.396 409.956 306.882 406.5C291.29 402.846 274.242 398.601 245.552 398.601C216.861 398.601 199.814 402.748 184.221 406.5C170.708 409.758 159.897 412.424 141.602 412.424V431.481C169.668 431.481 187.34 427.235 202.932 423.582C216.446 420.324 227.256 417.658 245.552 417.658C263.847 417.658 274.658 420.126 288.171 423.582C303.764 427.334 320.811 431.481 349.502 431.481C378.192 431.481 395.24 427.235 410.832 423.582C424.346 420.422 435.364 417.658 453.452 417.658C472.163 417.658 482.558 420.126 496.071 423.582C511.664 427.334 528.919 431.481 557.402 431.481V412.227C538.691 412.227 528.296 409.758 514.782 406.5ZM453.452 442.343C425.385 442.343 407.714 446.589 392.121 450.242C378.608 453.698 368.213 456.167 349.502 456.167C330.791 456.167 320.396 453.698 306.882 450.242C291.29 446.49 274.242 442.343 245.552 442.343C216.861 442.343 199.814 446.589 184.221 450.242C170.708 453.698 160.313 456.167 141.602 456.167V475.421C169.668 475.421 187.34 471.175 202.932 467.522C216.446 464.362 227.464 461.597 245.552 461.597C263.639 461.597 274.658 464.066 288.171 467.522C303.764 471.274 320.811 475.421 349.502 475.421C378.192 475.421 395.24 471.175 410.832 467.522C424.346 464.362 435.364 461.597 453.452 461.597C472.163 461.597 482.558 464.066 496.071 467.522C511.664 471.274 528.919 475.421 557.402 475.421V456.167C538.691 456.167 528.296 453.698 514.782 450.242C499.19 446.49 481.518 442.343 453.452 442.343Z" fill="white" fill-opacity="0.22"/>
<g clip-path="url(#clip0_180_2212)">
<path d="M491.022 447.964L514.688 457.463C512.141 479.931 492.955 505.204 470.713 518.88L429.949 423.451L462.044 409.741L452.904 388.344L420.809 402.054L415.417 389.43C425.907 379.635 429.867 364.029 423.926 350.121C416.385 332.468 395.773 324.195 378.121 331.736C360.469 339.276 352.195 359.888 359.736 377.54C365.677 391.448 379.69 399.378 394.02 398.57L399.412 411.194L367.317 424.904L376.457 446.3L408.552 432.591L449.316 528.02C424.058 534.635 392.533 531.023 374.54 517.33L384.039 493.664L327.536 479.849L341.245 511.944C358.977 553.453 425.871 564.348 469.52 545.702C513.17 527.057 551.547 471.194 533.816 429.684L520.106 397.589L491.022 447.964ZM387.261 353.132C393.145 350.619 400.016 353.377 402.529 359.261C405.043 365.145 402.285 372.015 396.401 374.529C390.517 377.042 383.646 374.285 381.133 368.401C378.619 362.516 381.377 355.646 387.261 353.132Z" fill="#0046CE"/>
</g>
<g clip-path="url(#clip1_180_2212)">
<path d="M477.301 351.801C483.266 351.801 488.101 346.966 488.101 341.001C488.101 335.036 483.266 330.201 477.301 330.201C471.336 330.201 466.501 335.036 466.501 341.001C466.501 346.966 471.336 351.801 477.301 351.801Z" fill="#0046CE"/>
<path d="M491.701 323.001C497.666 323.001 502.501 318.166 502.501 312.201C502.501 306.237 497.666 301.401 491.701 301.401C485.737 301.401 480.901 306.237 480.901 312.201C480.901 318.166 485.737 323.001 491.701 323.001Z" fill="#0046CE"/>
<path d="M511.862 364.762C517.826 364.762 522.662 359.927 522.662 353.962C522.662 347.997 517.826 343.162 511.862 343.162C505.897 343.162 501.062 347.997 501.062 353.962C501.062 359.927 505.897 364.762 511.862 364.762Z" fill="#0046CE"/>
</g>
<g clip-path="url(#clip2_180_2212)">
<path d="M367.502 613.7C371.478 613.7 374.702 610.476 374.702 606.5C374.702 602.523 371.478 599.3 367.502 599.3C363.525 599.3 360.302 602.523 360.302 606.5C360.302 610.476 363.525 613.7 367.502 613.7Z" fill="#0046CE"/>
<path d="M309.901 613.7C313.878 613.7 317.101 610.476 317.101 606.5C317.101 602.523 313.878 599.3 309.901 599.3C305.925 599.3 302.701 602.523 302.701 606.5C302.701 610.476 305.925 613.7 309.901 613.7Z" fill="#0046CE"/>
<path d="M338.702 642.5C342.678 642.5 345.902 639.276 345.902 635.3C345.902 631.323 342.678 628.1 338.702 628.1C334.726 628.1 331.502 631.323 331.502 635.3C331.502 639.276 334.726 642.5 338.702 642.5Z" fill="#0046CE"/>
<path d="M331.682 594.225L317.21 579.681H317.174L316.058 578.529L310.946 583.605L325.418 598.185L325.454 598.149L326.57 599.301L331.682 594.225ZM345.696 594.322L361.554 578.511L366.638 583.605L350.78 599.42L345.696 594.322ZM331.538 618.597L326.426 613.521L311.918 627.957L310.766 629.145L315.842 634.221L330.35 619.749L331.538 618.597ZM366.638 629.181L352.274 614.745L350.978 613.485L345.902 618.561L360.266 632.997L361.526 634.257L366.638 629.181Z" fill="#0046CE"/>
<path d="M338.702 584.901C342.678 584.901 345.902 581.677 345.902 577.701C345.902 573.725 342.678 570.501 338.702 570.501C334.726 570.501 331.502 573.725 331.502 577.701C331.502 581.677 334.726 584.901 338.702 584.901Z" fill="#0046CE"/>
</g>
<g clip-path="url(#clip3_180_2212)">
<path d="M588.805 333.074L595.335 336.107L598.367 329.576C594.776 327.909 590.472 329.483 588.805 333.074ZM576.675 359.195L583.205 362.228L586.238 355.697L579.707 352.665L576.675 359.195ZM577.606 391.381L584.136 394.414L587.169 387.883L580.638 384.851L577.606 391.381ZM582.74 346.135L589.27 349.167L592.302 342.637L585.772 339.605L582.74 346.135ZM624.488 341.706L617.958 338.674L614.926 345.204L621.456 348.236L624.488 341.706ZM644.079 350.803L641.047 357.333L647.577 360.366C649.245 356.774 647.671 352.471 644.079 350.803ZM571.076 388.349L574.108 381.819L567.578 378.786C565.91 382.378 567.484 386.681 571.076 388.349ZM570.61 372.256L577.14 375.288L580.173 368.758L573.643 365.726L570.61 372.256ZM611.428 335.641L604.897 332.609L601.865 339.139L608.395 342.171L611.428 335.641ZM590.667 397.446L597.197 400.478L600.229 393.948L593.699 390.916L590.667 397.446ZM628.917 383.454L635.448 386.487L638.48 379.957L631.95 376.924L628.917 383.454ZM616.788 409.576C620.379 411.243 624.683 409.669 626.35 406.078L619.82 403.045L616.788 409.576ZM634.982 370.394L641.512 373.426L644.545 366.896L638.014 363.864L634.982 370.394ZM622.852 396.515L629.383 399.547L632.415 393.017L625.885 389.985L622.852 396.515ZM603.727 403.511L610.257 406.543L613.29 400.013L606.76 396.981L603.727 403.511ZM627.986 351.269L634.517 354.301L637.549 347.771L631.019 344.738L627.986 351.269ZM583.671 378.321L616.322 393.483L631.484 360.831L598.833 345.669L583.671 378.321ZM602.331 355.232L621.921 364.329L612.824 383.92L593.233 374.823L602.331 355.232Z" fill="#0046CE"/>
</g>
<g clip-path="url(#clip4_180_2212)">
<path d="M630.864 296.676H676.989V285.501H630.864V296.676ZM630.864 229.626V240.801H769.239V229.626H630.864ZM630.864 268.738H723.114V257.563H630.864V268.738Z" fill="white" fill-opacity="0.24"/>
</g>
<g clip-path="url(#clip5_180_2212)">
<path d="M264.723 369.047L270.565 364.838L245.313 329.787L239.471 333.996L264.723 369.047ZM284.825 372.313L290.666 368.104L248.579 309.686L242.737 313.895L284.825 372.313ZM244.622 365.78L250.464 361.572L242.047 349.888L236.205 354.097L244.622 365.78ZM288.091 352.212L293.932 348.003L268.68 312.952L262.838 317.161L288.091 352.212ZM282.939 320.427L291.357 332.111L297.199 327.902L288.781 316.218L282.939 320.427Z" fill="#0046CE"/>
</g>
<path d="M45.661 428.482C56.795 428.482 65.821 419.456 65.821 408.322C65.821 397.188 56.795 388.162 45.661 388.162C34.5269 388.162 25.501 397.188 25.501 408.322C25.501 419.456 34.5269 428.482 45.661 428.482Z" fill="#0046CE"/>
<path d="M93.5404 443.601C100.499 443.601 106.14 437.96 106.14 431.001C106.14 424.043 100.499 418.401 93.5404 418.401C86.5816 418.401 80.9404 424.043 80.9404 431.001C80.9404 437.96 86.5816 443.601 93.5404 443.601Z" fill="#0046CE"/>
<path d="M96.0603 403.281C112.761 403.281 126.3 389.742 126.3 373.041C126.3 356.34 112.761 342.801 96.0603 342.801C79.3592 342.801 65.8203 356.34 65.8203 373.041C65.8203 389.742 79.3592 403.281 96.0603 403.281Z" fill="#0046CE"/>
<g clip-path="url(#clip6_180_2212)">
<path d="M623.776 501.613C620.332 501.613 617.514 504.431 617.514 507.875C617.514 511.32 620.332 514.138 623.776 514.138C627.221 514.138 630.039 511.32 630.039 507.875C630.039 504.431 627.221 501.613 623.776 501.613ZM623.776 526.663C620.332 526.663 617.514 529.481 617.514 532.925C617.514 536.37 620.332 539.188 623.776 539.188C627.221 539.188 630.039 536.37 630.039 532.925C630.039 529.481 627.221 526.663 623.776 526.663ZM623.776 476.563C620.332 476.563 617.514 479.381 617.514 482.825C617.514 486.27 620.332 489.088 623.776 489.088C627.221 489.088 630.039 486.27 630.039 482.825C630.039 479.381 627.221 476.563 623.776 476.563ZM604.989 479.694C603.235 479.694 601.857 481.072 601.857 482.825C601.857 484.579 603.235 485.956 604.989 485.956C606.742 485.956 608.12 484.579 608.12 482.825C608.12 481.072 606.742 479.694 604.989 479.694ZM623.776 451.513C620.332 451.513 617.514 454.331 617.514 457.775C617.514 461.22 620.332 464.038 623.776 464.038C627.221 464.038 630.039 461.22 630.039 457.775C630.039 454.331 627.221 451.513 623.776 451.513ZM717.714 485.956C719.467 485.956 720.845 484.579 720.845 482.825C720.845 481.072 719.467 479.694 717.714 479.694C715.96 479.694 714.582 481.072 714.582 482.825C714.582 484.579 715.96 485.956 717.714 485.956ZM673.876 464.038C677.321 464.038 680.139 461.22 680.139 457.775C680.139 454.331 677.321 451.513 673.876 451.513C670.432 451.513 667.614 454.331 667.614 457.775C667.614 461.22 670.432 464.038 673.876 464.038ZM673.876 442.119C675.63 442.119 677.007 440.741 677.007 438.988C677.007 437.234 675.63 435.856 673.876 435.856C672.123 435.856 670.745 437.234 670.745 438.988C670.745 440.741 672.123 442.119 673.876 442.119ZM604.989 504.744C603.235 504.744 601.857 506.122 601.857 507.875C601.857 509.629 603.235 511.006 604.989 511.006C606.742 511.006 608.12 509.629 608.12 507.875C608.12 506.122 606.742 504.744 604.989 504.744ZM648.826 548.581C647.073 548.581 645.695 549.959 645.695 551.713C645.695 553.466 647.073 554.844 648.826 554.844C650.58 554.844 651.957 553.466 651.957 551.713C651.957 549.959 650.58 548.581 648.826 548.581ZM648.826 442.119C650.58 442.119 651.957 440.741 651.957 438.988C651.957 437.234 650.58 435.856 648.826 435.856C647.073 435.856 645.695 437.234 645.695 438.988C645.695 440.741 647.073 442.119 648.826 442.119ZM648.826 464.038C652.271 464.038 655.089 461.22 655.089 457.775C655.089 454.331 652.271 451.513 648.826 451.513C645.382 451.513 642.564 454.331 642.564 457.775C642.564 461.22 645.382 464.038 648.826 464.038ZM648.826 498.481C643.628 498.481 639.432 502.677 639.432 507.875C639.432 513.073 643.628 517.269 648.826 517.269C654.024 517.269 658.22 513.073 658.22 507.875C658.22 502.677 654.024 498.481 648.826 498.481ZM698.926 501.613C695.482 501.613 692.664 504.431 692.664 507.875C692.664 511.32 695.482 514.138 698.926 514.138C702.371 514.138 705.189 511.32 705.189 507.875C705.189 504.431 702.371 501.613 698.926 501.613ZM698.926 526.663C695.482 526.663 692.664 529.481 692.664 532.925C692.664 536.37 695.482 539.188 698.926 539.188C702.371 539.188 705.189 536.37 705.189 532.925C705.189 529.481 702.371 526.663 698.926 526.663ZM698.926 476.563C695.482 476.563 692.664 479.381 692.664 482.825C692.664 486.27 695.482 489.088 698.926 489.088C702.371 489.088 705.189 486.27 705.189 482.825C705.189 479.381 702.371 476.563 698.926 476.563ZM698.926 451.513C695.482 451.513 692.664 454.331 692.664 457.775C692.664 461.22 695.482 464.038 698.926 464.038C702.371 464.038 705.189 461.22 705.189 457.775C705.189 454.331 702.371 451.513 698.926 451.513ZM717.714 504.744C715.96 504.744 714.582 506.122 714.582 507.875C714.582 509.629 715.96 511.006 717.714 511.006C719.467 511.006 720.845 509.629 720.845 507.875C720.845 506.122 719.467 504.744 717.714 504.744ZM673.876 526.663C670.432 526.663 667.614 529.481 667.614 532.925C667.614 536.37 670.432 539.188 673.876 539.188C677.321 539.188 680.139 536.37 680.139 532.925C680.139 529.481 677.321 526.663 673.876 526.663ZM673.876 548.581C672.123 548.581 670.745 549.959 670.745 551.713C670.745 553.466 672.123 554.844 673.876 554.844C675.63 554.844 677.007 553.466 677.007 551.713C677.007 549.959 675.63 548.581 673.876 548.581ZM648.826 473.431C643.628 473.431 639.432 477.627 639.432 482.825C639.432 488.023 643.628 492.219 648.826 492.219C654.024 492.219 658.22 488.023 658.22 482.825C658.22 477.627 654.024 473.431 648.826 473.431ZM648.826 526.663C645.382 526.663 642.564 529.481 642.564 532.925C642.564 536.37 645.382 539.188 648.826 539.188C652.271 539.188 655.089 536.37 655.089 532.925C655.089 529.481 652.271 526.663 648.826 526.663ZM673.876 498.481C668.678 498.481 664.482 502.677 664.482 507.875C664.482 513.073 668.678 517.269 673.876 517.269C679.074 517.269 683.27 513.073 683.27 507.875C683.27 502.677 679.074 498.481 673.876 498.481ZM673.876 473.431C668.678 473.431 664.482 477.627 664.482 482.825C664.482 488.023 668.678 492.219 673.876 492.219C679.074 492.219 683.27 488.023 683.27 482.825C683.27 477.627 679.074 473.431 673.876 473.431Z" fill="#0046CE"/>
</g>
<g clip-path="url(#clip7_180_2212)">
<path d="M314.894 278.655L319.382 275.971C321.652 274.613 322.483 271.767 321.428 269.389L299.243 222.169L285.726 230.253L279.177 219.305L273.852 222.49L280.4 233.439L266.964 241.474L271.558 247.315C276.941 245.821 282.641 245.532 286.756 246.521C292.945 248.031 297.998 250.405 301.878 256.893L314.894 278.655ZM267.157 303.535L265.557 300.859L306.189 276.558L307.789 279.234C308.678 280.721 308.19 282.665 306.676 283.57L271.505 304.606C269.991 305.511 268.047 305.022 267.157 303.535ZM296.471 260.31C283.537 238.683 242.905 262.984 255.839 284.611L296.471 260.31ZM259.143 290.013L299.694 265.76L302.928 271.167L262.377 295.42L259.143 290.013Z" fill="#0046CE"/>
</g>
<g clip-path="url(#clip8_180_2212)">
<path d="M336.225 151.549H333.3V147.6L336.225 147.249V151.549ZM336.225 169.099H333.3V154.474H336.225V169.099ZM327.45 154.474H330.375V169.099H327.45V154.474ZM327.45 148.273L330.375 147.922V151.549H327.45V148.273ZM374.25 142.774V139.849L324.525 145.699V169.099H315.75C315.75 179.892 322.975 189.164 333.3 193.23V198.349H356.7V193.23C367.025 189.164 374.25 179.892 374.25 169.099H339.15V154.474H374.25V151.549H339.15V146.898L374.25 142.774Z" fill="#0046CE"/>
</g>
<g clip-path="url(#clip9_180_2212)">
<path d="M271.458 63.948L267.294 66.3353L263.713 60.089C263.057 58.9438 261.582 58.544 260.437 59.2005L252.109 63.9751C250.964 64.6316 250.564 66.1057 251.22 67.2509L254.801 73.4972L250.637 75.8845C248.347 77.1975 247.547 80.1457 248.86 82.436L261.99 105.339C263.303 107.63 266.252 108.429 268.542 107.116C269.198 108.261 270.672 108.661 271.818 108.005C272.963 107.348 273.363 105.874 272.706 104.729L285.199 97.567C285.855 98.7121 287.329 99.112 288.475 98.4554C289.62 97.7989 290.019 96.3248 289.363 95.1797C291.653 93.8667 292.453 90.9185 291.14 88.6281L278.01 65.7249C276.697 63.4346 273.749 62.635 271.458 63.948ZM270.166 97.8857L267.043 99.6762L256.3 80.9372L259.423 79.1467L270.166 97.8857ZM276.933 94.0064L273.81 95.7968L263.067 77.0578L266.19 75.2673L276.933 94.0064ZM264.171 68.1258L257.924 71.7067L254.94 66.5014L261.187 62.9205L264.171 68.1258ZM283.7 90.127L280.577 91.9175L269.834 73.1785L272.957 71.388L283.7 90.127Z" fill="#0046CE"/>
</g>
<g clip-path="url(#clip10_180_2212)">
<path d="M400.227 270.799H417.723C417.147 265.003 415.167 259.603 412.179 254.959C405.951 257.947 401.415 263.779 400.227 270.799Z" fill="#0046CE"/>
<path d="M363.578 270.799C362.39 263.779 357.854 257.947 351.626 254.959C348.638 259.603 346.658 265.003 346.082 270.799H363.578Z" fill="#0046CE"/>
<path d="M392.953 270.799C394.105 261.475 399.721 253.555 407.569 249.199C401.809 243.331 394.105 239.443 385.501 238.579V270.799H392.953Z" fill="#0046CE"/>
<path d="M370.849 270.799H378.301V238.579C369.697 239.443 361.957 243.331 356.233 249.199C364.081 253.555 369.697 261.475 370.849 270.799Z" fill="#0046CE"/>
<path d="M392.953 278H385.501V310.22C394.105 309.356 401.845 305.468 407.569 299.6C399.721 295.244 394.105 287.324 392.953 278Z" fill="#0046CE"/>
<path d="M351.626 293.84C357.818 290.852 362.39 284.984 363.578 278H346.082C346.658 283.796 348.638 289.196 351.626 293.84Z" fill="#0046CE"/>
<path d="M400.227 277.999C401.415 285.019 405.951 290.851 412.179 293.839C415.167 289.195 417.147 283.795 417.723 277.999H400.227Z" fill="#0046CE"/>
<path d="M370.849 278C369.697 287.324 364.081 295.244 356.233 299.6C361.993 305.468 369.697 309.356 378.301 310.22V278H370.849Z" fill="#0046CE"/>
</g>
<g clip-path="url(#clip11_180_2212)">
<path fill-rule="evenodd" clip-rule="evenodd" d="M365.176 78.3444L369.565 97.8847L382.881 83.118C382.637 82.8164 382.421 82.5222 382.239 82.2079C379.534 83.0478 376.523 83.1563 373.575 82.3665C370.628 81.5767 368.074 79.9773 366.152 77.8973C365.837 78.0788 365.503 78.2253 365.176 78.3444ZM359.341 78.5229C355.055 77.1088 352.571 72.6051 353.752 68.1976C354.852 64.0931 358.77 61.4818 362.879 61.9038C365.594 54.3054 373.761 49.9393 381.695 52.0651C389.628 54.1908 394.518 62.0555 393.07 69.9935C396.84 71.6826 398.927 75.9029 397.827 80.0074C396.654 84.3873 392.271 87.0807 387.88 86.1698L366.387 109.965L359.341 78.5229Z" fill="#0046CE"/>
</g>
<g clip-path="url(#clip12_180_2212)">
<path d="M216.276 23.7304L218.528 21.4782L228.671 31.6259L226.424 33.8734L216.276 23.7304ZM223.038 14.7057L227.542 10.2012C221.321 3.97994 211.241 3.96419 205.02 10.1697C211.209 8.12219 218.108 9.77594 223.038 14.7057ZM204.972 10.2169C198.767 16.4382 198.783 26.5182 205.004 32.7394L209.508 28.2349C204.579 23.3052 202.925 16.4067 204.972 10.2169ZM205.004 10.1854L204.988 10.2012C204.39 14.9419 206.831 21.0372 211.761 25.9827L220.785 16.9579C215.856 12.0282 209.745 9.58694 205.004 10.1854Z" fill="#0046CE"/>
</g>
<path d="M493.086 175.092L495.187 168.205L433.206 149.3L431.105 156.187L449.2 195.579L443.949 212.796L426.732 207.545L424.631 214.432L465.952 227.035L468.052 220.148L450.835 214.897L456.087 197.68L493.086 175.092ZM444.259 167.726L440.265 158.98L483.961 172.308L475.732 177.326L444.259 167.726Z" fill="#0046CE"/>
<defs>
<clipPath id="clip0_180_2212">
<rect width="279.205" height="279.205" fill="white" transform="translate(240.601 365.179) rotate(-23.1305)"/>
</clipPath>
<clipPath id="clip1_180_2212">
<rect width="86.4" height="86.4" fill="white" transform="translate(452.102 290.601)"/>
</clipPath>
<clipPath id="clip2_180_2212">
<rect width="86.4" height="86.4" fill="white" transform="translate(295.501 563.3)"/>
</clipPath>
<clipPath id="clip3_180_2212">
<rect width="86.4" height="86.4" fill="white" transform="translate(586.59 312.2) rotate(24.9082)"/>
</clipPath>
<clipPath id="clip4_180_2212">
<rect width="184.5" height="134.1" fill="white" transform="translate(607.801 196.101)"/>
</clipPath>
<clipPath id="clip5_180_2212">
<rect width="86.4" height="86.4" fill="white" transform="translate(206.397 331.2) rotate(-35.7708)"/>
</clipPath>
<clipPath id="clip6_180_2212">
<rect width="150.3" height="150.3" fill="white" transform="translate(586.201 420.2)"/>
</clipPath>
<clipPath id="clip7_180_2212">
<rect width="75.6" height="75.6" fill="white" transform="translate(228.9 245.705) rotate(-30.8828)"/>
</clipPath>
<clipPath id="clip8_180_2212">
<rect width="70.2" height="70.2" fill="white" transform="translate(309.9 134)"/>
</clipPath>
<clipPath id="clip9_180_2212">
<rect width="57.6" height="57.6" fill="white" transform="translate(228.9 71.7471) rotate(-29.8252)"/>
</clipPath>
<clipPath id="clip10_180_2212">
<rect width="86.4" height="86.4" fill="white" transform="translate(338.701 231.2)"/>
</clipPath>
<clipPath id="clip11_180_2212">
<rect width="68.4444" height="68.4444" fill="white" transform="translate(350.115 37.6992) rotate(15)"/>
</clipPath>
<clipPath id="clip12_180_2212">
<rect width="37.8" height="37.8" fill="white" transform="translate(195.602 0.799805)"/>
</clipPath>
</defs>
</svg>
