<svg width="25" height="25" viewBox="0 0 25 25" fill="none" xmlns="http://www.w3.org/2000/svg">
<path d="M4.88444 6.48796C4.46658 6.90583 4.1351 7.4019 3.90895 7.94787C3.6828 8.49384 3.56641 9.07901 3.56641 9.66996C3.56641 10.2609 3.6828 10.8461 3.90895 11.392C4.1351 11.938 4.46658 12.4341 4.88444 12.852L12.5664 20.534L20.2484 12.852C21.0924 12.008 21.5665 10.8634 21.5665 9.66996C21.5665 8.47648 21.0924 7.33188 20.2484 6.48796C19.4045 5.64404 18.2599 5.16993 17.0664 5.16993C15.873 5.16993 14.7284 5.64404 13.8844 6.48796L12.5664 7.80596L11.2484 6.48796C10.8306 6.07009 10.3345 5.73862 9.78853 5.51247C9.24256 5.28632 8.6574 5.16992 8.06645 5.16992C7.47549 5.16992 6.89033 5.28632 6.34436 5.51247C5.79839 5.73862 5.30231 6.07009 4.88444 6.48796Z" stroke="black" stroke-width="2" stroke-linecap="round" stroke-linejoin="round"/>
</svg>
