<svg width="193" height="180" viewBox="0 0 193 180" fill="none" xmlns="http://www.w3.org/2000/svg">
<path d="M69.945 107.797L62.0236 127.938C61.076 130.019 59.4079 131.851 57.1467 132.822C54.9603 133.761 52.4904 133.793 50.2804 132.911C48.0704 132.029 46.3013 130.305 45.3623 128.119L44.8566 126.941L34.6364 90.1527C30.9521 78.846 36.382 66.4149 47.4994 61.6402L89.8962 43.4318C101.014 38.6571 113.767 43.2789 119.43 53.7359L139.072 86.4781L139.578 87.6558C140.517 89.8422 140.549 92.3121 139.666 94.522C138.784 96.732 137.061 98.5011 134.874 99.4401C132.613 100.411 130.136 100.359 127.974 99.6137L107.914 91.4902L69.945 107.797ZM49.1903 72.0733L53.2366 81.4948L43.8151 85.5411L45.8383 90.2519L55.2598 86.2056L59.3061 95.6271L64.0169 93.6039L59.9706 84.1824L69.3921 80.1361L67.3689 75.4253L57.9474 79.4717L53.9011 70.0501L49.1903 72.0733ZM93.9425 52.8533C93.0055 53.2557 92.2667 54.0139 91.8887 54.961C91.5107 55.9082 91.5244 56.9667 91.9268 57.9037C92.3293 58.8407 93.0875 59.5795 94.0346 59.9575C94.9817 60.3356 96.0402 60.3218 96.9773 59.9194C97.9143 59.517 98.6531 58.7588 99.0311 57.8117C99.4091 56.8645 99.3954 55.806 98.993 54.869C98.5905 53.9319 97.8324 53.1932 96.8852 52.8151C95.9381 52.4371 94.8796 52.4508 93.9425 52.8533ZM89.2392 64.6376C88.3022 65.0401 87.5634 65.7982 87.1854 66.7454C86.8074 67.6925 86.8211 68.751 87.2235 69.6881C87.626 70.6251 88.3842 71.3639 89.3313 71.7419C90.2784 72.1199 91.337 72.1062 92.274 71.7038C93.211 71.3013 93.9498 70.5431 94.3278 69.596C94.7058 68.6489 94.6921 67.5904 94.2897 66.6533C93.8872 65.7163 93.1291 64.9775 92.1819 64.5995C91.2348 64.2215 90.1763 64.2352 89.2392 64.6376ZM105.727 57.5566C104.79 57.959 104.051 58.7172 103.673 59.6643C103.295 60.6115 103.309 61.67 103.711 62.607C104.114 63.544 104.872 64.2828 105.819 64.6608C106.766 65.0389 107.825 65.0251 108.762 64.6227C109.699 64.2203 110.437 63.4621 110.815 62.5149C111.193 61.5678 111.18 60.5093 110.777 59.5723C110.375 58.6352 109.617 57.8965 108.67 57.5184C107.722 57.1404 106.664 57.1541 105.727 57.5566ZM101.024 69.3409C100.087 69.7434 99.3478 70.5015 98.9698 71.4487C98.5918 72.3958 98.6055 73.4543 99.0079 74.3914C99.4103 75.3284 100.169 76.0672 101.116 76.4452C102.063 76.8232 103.121 76.8095 104.058 76.4071C104.995 76.0046 105.734 75.2464 106.112 74.2993C106.49 73.3522 106.476 72.2937 106.074 71.3566C105.672 70.4196 104.913 69.6808 103.966 69.3028C103.019 68.9248 101.961 68.9385 101.024 69.3409Z" fill="currentColor"/>
<path d="M174.956 127.521L169.227 124.954C169.881 124.269 170.466 123.458 170.878 122.538C172.833 118.176 170.889 113.076 166.527 111.121C163.767 109.885 160.74 110.232 158.367 111.725L156.264 112.897L155.751 110.521C155.274 107.783 153.518 105.292 150.759 104.056C146.397 102.101 141.297 104.044 139.342 108.407C138.93 109.327 138.714 110.303 138.638 111.247L132.909 108.68C129.992 107.372 126.631 108.675 125.324 111.592L112.344 140.488C111.037 143.405 112.328 146.792 115.245 148.099L157.292 166.941C160.209 168.248 163.596 166.957 164.903 164.04L177.857 135.132C179.164 132.215 177.873 128.828 174.956 127.521ZM164.171 116.377C165.617 117.025 166.27 118.738 165.622 120.183C164.974 121.628 163.262 122.281 161.816 121.633C160.371 120.986 159.718 119.273 160.366 117.828C161.014 116.382 162.726 115.73 164.171 116.377ZM148.404 109.312C149.849 109.959 150.502 111.672 149.854 113.117C149.206 114.563 147.494 115.215 146.049 114.568C144.603 113.92 143.95 112.207 144.598 110.762C145.246 109.317 146.958 108.664 148.404 109.312ZM159.647 161.685L117.6 142.843L119.955 137.587L162.002 156.429L159.647 161.685ZM165.535 148.545L123.488 129.703L130.554 113.935L143.904 119.918L135.105 124.905L137.984 129.888L148.054 124.176L152.284 121.78L153.31 126.531L155.749 137.848L161.384 136.681L159.251 126.795L172.601 132.777L165.535 148.545Z" fill="currentColor"/>
</svg>
