<svg width="139" height="208" viewBox="0 0 139 208" fill="none" xmlns="http://www.w3.org/2000/svg">
<path d="M109.138 132.896C102.341 132.896 98.544 139.646 100.091 144.662L83.4502 161.35C82.044 160.928 79.9815 160.928 78.5752 161.35L66.6221 149.396C68.2158 144.381 64.4189 137.584 57.5752 137.584C50.7783 137.584 46.9346 144.334 48.5283 149.396L27.1533 170.725C22.1377 169.178 15.3877 172.975 15.3877 179.771C15.3877 184.928 19.6064 189.146 24.7627 189.146C31.5596 189.146 35.3564 182.396 33.8096 177.381L55.1377 156.006C56.5439 156.428 58.6065 156.428 60.0127 156.006L71.9658 167.959C70.3721 172.975 74.169 179.771 81.0127 179.771C87.8096 179.771 91.6533 173.021 90.0596 167.959L106.747 151.318C111.763 152.865 118.513 149.068 118.513 142.271C118.513 137.115 114.294 132.896 109.138 132.896Z" fill="currentColor"/>
<path d="M81.0127 137.584L85.4189 127.881L95.0752 123.521L85.4189 119.162L81.0127 109.459L76.7002 119.162L66.9502 123.521L76.7002 127.881L81.0127 137.584Z" fill="currentColor"/>
<path d="M27.1066 146.959L29.4503 137.584L38.8253 135.24L29.4503 132.896L27.1066 123.521L24.7628 132.896L15.3878 135.24L24.7628 137.584L27.1066 146.959Z" fill="currentColor"/>
<path d="M33.173 5.39648C18.269 5.39648 6.19995 17.4925 6.19995 32.3965C6.19995 47.3005 18.269 59.3965 33.173 59.3965C48.104 59.3965 60.2 47.3005 60.2 32.3965C60.2 17.4925 48.104 5.39648 33.173 5.39648ZM33.2 53.9965C21.266 53.9965 11.6 44.3305 11.6 32.3965C11.6 20.4625 21.266 10.7965 33.2 10.7965C45.134 10.7965 54.8 20.4625 54.8 32.3965C54.8 44.3305 45.134 53.9965 33.2 53.9965ZM42.65 29.6965C44.891 29.6965 46.7 27.8875 46.7 25.6465C46.7 23.4055 44.891 21.5965 42.65 21.5965C40.409 21.5965 38.6 23.4055 38.6 25.6465C38.6 27.8875 40.409 29.6965 42.65 29.6965ZM23.75 29.6965C25.991 29.6965 27.8 27.8875 27.8 25.6465C27.8 23.4055 25.991 21.5965 23.75 21.5965C21.509 21.5965 19.7 23.4055 19.7 25.6465C19.7 27.8875 21.509 29.6965 23.75 29.6965ZM33.2 47.2465C39.491 47.2465 44.837 43.3045 46.997 37.7965H19.403C21.563 43.3045 26.909 47.2465 33.2 47.2465Z" fill="currentColor"/>
<path d="M65.5819 68.3984C55.6459 68.3984 47.5999 76.4624 47.5999 86.3984C47.5999 96.3344 55.6459 104.398 65.5819 104.398C75.5359 104.398 83.5999 96.3344 83.5999 86.3984C83.5999 76.4624 75.5359 68.3984 65.5819 68.3984ZM65.5999 100.798C57.6439 100.798 51.1999 94.3544 51.1999 86.3984C51.1999 78.4424 57.6439 71.9984 65.5999 71.9984C73.5559 71.9984 79.9999 78.4424 79.9999 86.3984C79.9999 94.3544 73.5559 100.798 65.5999 100.798ZM71.8999 84.5984C73.3939 84.5984 74.5999 83.3924 74.5999 81.8984C74.5999 80.4044 73.3939 79.1984 71.8999 79.1984C70.4059 79.1984 69.1999 80.4044 69.1999 81.8984C69.1999 83.3924 70.4059 84.5984 71.8999 84.5984ZM59.2999 84.5984C60.7939 84.5984 61.9999 83.3924 61.9999 81.8984C61.9999 80.4044 60.7939 79.1984 59.2999 79.1984C57.8059 79.1984 56.5999 80.4044 56.5999 81.8984C56.5999 83.3924 57.8059 84.5984 59.2999 84.5984ZM65.5999 89.9984C61.4059 89.9984 57.8419 92.6264 56.4019 96.2984H74.7979C73.3579 92.6264 69.7939 89.9984 65.5999 89.9984Z" fill="currentColor"/>
<path d="M106.437 51.1289H119.262V53.2664H106.437V51.1289Z" fill="currentColor"/>
<path d="M120.331 41.5102C122.102 41.5102 123.537 40.0747 123.537 38.3039C123.537 36.5331 122.102 35.0977 120.331 35.0977C118.56 35.0977 117.125 36.5331 117.125 38.3039C117.125 40.0747 118.56 41.5102 120.331 41.5102Z" fill="currentColor"/>
<path d="M105.369 41.5102C107.139 41.5102 108.575 40.0747 108.575 38.3039C108.575 36.5331 107.139 35.0977 105.369 35.0977C103.598 35.0977 102.162 36.5331 102.162 38.3039C102.162 40.0747 103.598 41.5102 105.369 41.5102Z" fill="currentColor"/>
<path d="M112.828 22.2715C101.029 22.2715 91.4749 31.8475 91.4749 43.6465C91.4749 55.4455 101.029 65.0215 112.828 65.0215C124.649 65.0215 134.225 55.4455 134.225 43.6465C134.225 31.8475 124.649 22.2715 112.828 22.2715ZM112.85 60.7465C103.402 60.7465 95.7499 53.0942 95.7499 43.6465C95.7499 34.1987 103.402 26.5465 112.85 26.5465C122.298 26.5465 129.95 34.1987 129.95 43.6465C129.95 53.0942 122.298 60.7465 112.85 60.7465Z" fill="currentColor"/>
</svg>
