<svg width="179" height="144" viewBox="0 0 179 144" fill="none" xmlns="http://www.w3.org/2000/svg">
<g clip-path="url(#clip0_543_50)">
<path d="M108.3 21.9004H21.9V32.7004H108.3V21.9004ZM113.7 75.9004V65.1004L108.3 38.1004H21.9L16.5 65.1004V75.9004H21.9V108.3H75.9V75.9004H97.5V108.3H108.3V75.9004H113.7ZM65.1 97.5004H32.7V75.9004H65.1V97.5004Z" fill="#4387FF"/>
</g>
<g clip-path="url(#clip1_543_50)">
<path d="M131.962 126.975C128.951 126.975 126.515 129.439 126.515 132.45C126.515 135.461 128.951 137.925 131.962 137.925C134.974 137.925 137.437 135.461 137.437 132.45C137.437 129.439 134.974 126.975 131.962 126.975ZM115.537 83.1748V88.6498H121.012L130.867 109.427L127.172 116.134C126.734 116.901 126.487 117.804 126.487 118.762C126.487 121.774 128.951 124.237 131.962 124.237H164.812V118.762H133.112C132.729 118.762 132.428 118.461 132.428 118.078L132.51 117.749L134.974 113.287H155.368C157.421 113.287 159.228 112.165 160.159 110.468L169.959 92.7013C170.178 92.3181 170.287 91.8527 170.287 91.3873C170.287 89.8817 169.056 88.6498 167.55 88.6498H127.062L124.489 83.1748H115.537ZM159.337 126.975C156.326 126.975 153.89 129.439 153.89 132.45C153.89 135.461 156.326 137.925 159.337 137.925C162.349 137.925 164.812 135.461 164.812 132.45C164.812 129.439 162.349 126.975 159.337 126.975Z" fill="#84B0FF"/>
</g>
<defs>
<clipPath id="clip0_543_50">
<rect width="129.6" height="129.6" fill="white" transform="translate(0.300049 0.299805)"/>
</clipPath>
<clipPath id="clip1_543_50">
<rect width="65.7" height="65.7" fill="white" transform="translate(112.8 77.6992)"/>
</clipPath>
</defs>
</svg>
